<?xml version="1.0" standalone="no"?>
<!DOCTYPE svg PUBLIC "-//W3C//DTD SVG 20010904//EN"
 "http://www.w3.org/TR/2001/REC-SVG-20010904/DTD/svg10.dtd">
<svg version="1.0" xmlns="http://www.w3.org/2000/svg"
 width="1280.000000pt" height="1280.000000pt" viewBox="0 0 1280.000000 1280.000000"
 preserveAspectRatio="xMidYMid meet">

<g transform="translate(0.000000,1280.000000) scale(0.100000,-0.100000)"
fill="#000000" stroke="none">
<path d="M6483 10709 c-44 -22 -79 -61 -106 -119 -13 -29 -79 -234 -92 -290
-23 -91 -45 -234 -43 -270 3 -40 6 -45 28 -48 21 -2 30 6 52 48 l28 50 62 0
c91 0 109 -13 130 -89 40 -150 124 -198 177 -102 32 59 38 156 17 307 -9 66
-20 160 -25 209 -12 118 -37 223 -62 263 -19 32 -70 62 -106 62 -10 0 -37 -9
-60 -21z m17 -352 l0 -198 -52 3 -53 3 1 40 c0 22 15 94 34 160 18 66 33 125
35 130 1 6 5 27 10 48 16 78 25 11 25 -186z"/>
<path d="M5583 10695 c-25 -17 -38 -64 -54 -193 -10 -82 -10 -117 0 -170 7
-37 19 -103 27 -147 16 -85 53 -204 86 -270 25 -53 73 -85 125 -85 80 0 212
116 268 235 42 90 55 153 55 271 0 80 -4 107 -26 162 -27 69 -78 144 -114 169
-34 24 -133 29 -185 9 -25 -10 -49 -25 -55 -34 -9 -15 -13 -13 -37 14 -40 45
-65 56 -90 39z m309 -187 c62 -73 71 -246 19 -363 -10 -22 -30 -51 -44 -64
l-26 -24 -6 29 c-4 16 -9 36 -11 44 -3 8 -12 47 -19 85 -8 39 -26 124 -40 190
-14 66 -25 123 -25 127 0 14 65 25 95 17 17 -5 42 -23 57 -41z"/>
<path d="M7715 10511 c-95 -27 -182 -96 -239 -190 -76 -124 -110 -355 -66
-441 20 -40 82 -96 137 -124 40 -20 125 -21 162 -1 42 21 98 91 120 149 20 54
19 71 -6 80 -28 11 -50 -3 -68 -44 -22 -48 -57 -83 -81 -78 -10 2 -27 18 -38
37 -18 31 -19 41 -9 110 14 92 54 219 90 281 79 139 174 163 160 40 -8 -64 -1
-80 32 -80 34 0 51 32 58 110 4 46 2 59 -17 83 -45 56 -158 89 -235 68z"/>
<path d="M8283 10331 c-26 -16 -66 -62 -121 -136 -4 -6 -25 -44 -46 -85 -22
-41 -48 -91 -59 -110 -11 -19 -33 -60 -50 -90 -16 -30 -35 -64 -41 -75 -7 -11
-23 -46 -35 -77 -20 -50 -22 -67 -16 -134 8 -82 32 -124 72 -124 49 0 126 85
199 217 48 86 50 88 62 56 6 -15 15 -44 21 -63 24 -86 73 -216 89 -233 27 -31
50 -39 72 -27 25 13 25 39 0 115 -22 69 -61 246 -63 290 -2 30 -2 30 63 36 87
8 125 31 155 96 42 87 30 178 -30 233 -24 23 -34 25 -110 24 l-83 -1 -5 45
c-4 38 -18 61 -37 62 -3 0 -19 -9 -37 -19z m162 -177 c21 -8 48 -61 39 -77
-32 -57 -100 -83 -134 -52 -24 22 -25 42 -4 83 22 46 57 62 99 46z"/>
<path d="M4455 10284 c-41 -21 -83 -82 -110 -161 -43 -122 -26 -267 49 -425
37 -78 128 -137 243 -157 158 -29 247 42 284 228 19 97 8 178 -34 253 -41 74
-144 190 -200 225 -80 50 -175 65 -232 37z m97 -129 c38 -26 95 -99 120 -155
48 -105 70 -173 80 -242 13 -85 5 -108 -37 -108 -58 0 -208 116 -240 185 -18
39 -46 224 -39 255 18 77 25 90 52 90 15 0 44 -11 64 -25z"/>
<path d="M8843 9969 c-18 -18 -16 -58 2 -65 8 -4 15 -11 15 -17 0 -5 -40 -51
-88 -101 -136 -141 -237 -324 -249 -452 -5 -53 -3 -64 15 -82 25 -25 61 -18
111 19 45 33 158 177 254 326 112 171 127 202 127 258 0 56 -24 82 -91 101
-24 7 -53 15 -64 19 -11 3 -26 0 -32 -6z"/>
<path d="M3911 9929 c-60 -18 -123 -81 -145 -145 -21 -63 -21 -186 1 -250 38
-112 117 -216 223 -293 103 -76 175 -85 273 -35 25 14 27 13 27 -7 0 -24 41
-66 88 -91 28 -15 31 -21 26 -47 -5 -24 -2 -32 11 -38 26 -9 65 39 65 81 0 40
-51 96 -87 96 -13 0 -29 10 -39 25 -16 25 -16 27 6 50 17 18 25 40 28 79 5 62
-9 111 -50 178 -32 51 -63 63 -89 32 -11 -13 -8 -25 18 -75 34 -65 33 -95 -3
-111 -35 -16 -77 6 -156 81 -130 122 -227 296 -199 357 15 33 52 31 94 -6 42
-36 73 -39 88 -6 9 19 7 29 -6 50 -10 14 -20 26 -24 26 -4 0 -17 9 -29 20 -20
19 -65 41 -80 39 -4 0 -22 -5 -41 -10z"/>
<path d="M9230 9512 c-154 -78 -402 -244 -469 -316 -48 -51 -7 -80 74 -52 l45
15 55 -53 c31 -29 55 -60 55 -71 0 -11 -14 -47 -30 -79 -38 -75 -43 -166 -9
-189 24 -18 60 -10 117 24 58 35 99 78 157 164 30 44 72 105 95 135 66 91 120
171 120 180 0 5 4 10 8 12 14 6 52 106 52 138 0 109 -141 157 -270 92z m80
-91 c-5 -11 -15 -23 -20 -26 -6 -3 -52 -57 -104 -118 -51 -62 -104 -122 -118
-134 l-24 -23 -38 39 c-21 22 -36 43 -32 49 3 5 58 42 121 83 64 41 139 91
167 112 59 43 62 44 48 18z"/>
<path d="M3335 9414 c-22 -7 -41 -14 -42 -14 -1 0 -10 -16 -19 -36 -37 -79
-18 -175 60 -296 20 -31 36 -59 36 -62 0 -5 58 -95 107 -166 28 -41 104 -134
126 -152 10 -10 30 -18 43 -18 29 0 31 25 8 87 l-16 42 41 49 c66 77 74 79
161 38 111 -53 200 -44 200 20 0 56 -84 170 -159 216 -36 22 -214 150 -261
187 -42 33 -183 108 -215 114 -16 3 -48 -1 -70 -9z m136 -260 c31 -27 88 -75
127 -108 40 -32 72 -63 72 -69 0 -15 -61 -77 -75 -77 -10 0 -235 331 -235 346
0 3 12 -5 28 -19 15 -14 52 -47 83 -73z"/>
<path d="M6190 9319 c-58 -4 -130 -13 -160 -18 -180 -33 -276 -55 -365 -82
-55 -16 -122 -36 -150 -44 -27 -8 -59 -19 -70 -24 -11 -6 -56 -24 -100 -42
-233 -90 -546 -278 -697 -419 -24 -22 -46 -40 -51 -40 -8 0 -255 -246 -298
-296 -31 -37 -155 -196 -187 -242 -22 -31 -22 -32 -3 -20 12 7 21 18 21 25 0
7 7 10 15 6 9 -3 15 -2 14 3 -4 22 2 45 10 40 5 -3 14 8 20 24 11 34 25 38 40
13 8 -14 9 -11 6 16 -3 26 2 40 26 65 19 20 29 26 29 16 1 -10 7 -8 21 9 11
14 16 27 10 30 -5 3 2 19 15 34 16 19 24 23 24 13 0 -9 5 -16 11 -16 7 0 9 9
6 22 -5 18 8 36 63 90 39 38 70 73 70 78 0 11 14 13 23 3 4 -3 1 -13 -6 -21
-10 -13 -9 -14 3 -10 8 3 14 12 14 20 -1 10 5 14 17 11 15 -4 18 -1 13 11 -5
12 -10 13 -27 5 -14 -7 -9 2 13 23 21 20 36 28 38 21 6 -22 23 -14 20 9 -2 11
3 23 10 25 8 3 10 -1 5 -14 -7 -17 -6 -17 11 0 17 17 31 21 51 17 6 -1 5 4 -1
10 -9 9 -17 9 -33 1 -12 -7 -21 -8 -21 -3 0 14 47 31 72 27 12 -3 38 -1 58 4
19 5 47 12 62 15 28 6 39 35 47 130 1 6 8 1 17 -10 15 -18 15 -18 10 4 -5 23
-4 24 17 5 48 -42 57 -54 57 -78 0 -32 -22 -105 -32 -105 -5 0 -8 -6 -8 -13 0
-7 -13 -21 -30 -30 -16 -10 -30 -23 -30 -28 0 -6 -5 -7 -10 -4 -6 3 -13 -1
-16 -9 -3 -9 -12 -16 -18 -16 -12 0 -100 -54 -122 -75 -6 -6 -31 -21 -56 -34
-46 -25 -78 -75 -59 -94 5 -5 7 -15 4 -23 -6 -16 53 -54 84 -54 12 0 24 -4 27
-8 3 -5 30 -14 60 -21 32 -7 55 -17 53 -24 -1 -7 4 -11 11 -9 15 3 16 -42 1
-69 -9 -18 -7 -19 18 -14 15 3 23 3 16 -1 -7 -3 -10 -11 -7 -18 3 -8 -5 -16
-22 -20 -14 -4 -24 -10 -21 -13 4 -3 -6 -29 -21 -57 -29 -56 -39 -79 -24 -57
8 11 10 5 9 -20 -2 -26 2 -33 13 -30 8 2 21 4 28 4 6 0 12 4 12 9 0 5 11 6 24
4 17 -3 23 0 20 8 -2 6 7 23 21 36 22 21 28 22 35 10 5 -8 10 -10 10 -5 1 6 3
30 5 55 2 30 1 37 -4 20 -7 -24 -8 -23 -13 9 -5 34 10 91 23 91 4 0 10 18 14
40 4 22 11 40 16 40 5 0 9 -4 9 -10 0 -5 9 -10 20 -10 11 0 20 5 20 10 0 6 -8
10 -17 10 -15 0 -16 2 -3 10 9 6 18 6 24 0 6 -6 15 -10 21 -10 5 0 4 4 -4 9
-7 5 -10 14 -6 20 4 8 11 9 19 2 9 -7 12 1 14 35 2 60 15 79 23 34 5 -23 5
-17 3 17 -4 46 -2 52 13 47 14 -5 15 -4 4 4 -8 6 -10 15 -5 23 18 31 77 99 86
99 5 0 18 -9 30 -20 14 -13 17 -20 8 -20 -7 0 -22 7 -32 17 -10 9 -18 12 -18
7 0 -16 40 -35 60 -29 14 5 20 -1 25 -27 13 -64 15 -66 58 -73 84 -14 113 -45
120 -126 3 -42 1 -48 -25 -63 -15 -10 -32 -25 -38 -35 -5 -11 -19 -17 -32 -16
-13 1 -15 0 -5 -2 18 -5 24 -23 6 -23 -5 0 -8 -4 -5 -8 12 -20 -11 -31 -49
-22 -22 5 -51 6 -65 3 -29 -7 -66 -30 -64 -41 3 -15 -9 -32 -21 -32 -7 0 -12
-13 -11 -32 1 -21 6 -32 14 -30 6 1 12 -7 12 -18 0 -11 -7 -20 -15 -20 -8 0
-15 5 -15 11 0 6 -7 3 -16 -6 -11 -11 -26 -15 -43 -11 -14 3 -20 3 -13 0 8 -4
1 -12 -20 -23 -20 -10 -34 -25 -36 -39 -2 -12 -7 -20 -12 -17 -4 3 -6 -3 -3
-13 2 -10 -6 -29 -21 -45 -26 -28 -19 -39 8 -12 20 20 22 19 21 -12 0 -19 -7
-30 -25 -37 -27 -12 -41 -39 -15 -30 8 4 15 9 15 13 0 4 11 13 25 19 14 6 25
8 25 4 -1 -10 -85 -62 -102 -62 -8 0 -18 -3 -22 -7 -3 -4 -13 -8 -20 -9 -56
-8 -94 -56 -94 -117 0 -19 -3 -45 -7 -58 -8 -24 -35 -57 -35 -42 0 4 -5 1 -11
-7 -8 -12 -9 -12 -7 5 1 11 0 25 -4 30 -3 6 -11 43 -17 83 -6 41 -18 87 -26
102 -17 33 -18 40 -7 40 5 0 14 -10 21 -22 9 -18 10 -18 5 -3 -3 11 -6 27 -5
35 0 8 1 29 1 46 1 17 8 40 16 50 15 18 15 18 11 -4 -3 -12 -1 -20 4 -17 4 3
8 18 9 33 0 15 1 38 2 52 1 14 -2 41 -6 60 -5 19 -9 49 -9 65 0 17 -2 24 -4
17 -3 -7 -17 4 -34 28 -17 23 -46 51 -66 63 -20 11 -31 23 -25 25 7 2 9 8 6
13 -4 6 -11 6 -19 -1 -10 -8 -19 -8 -35 0 -27 14 -35 -6 -19 -46 13 -31 15
-39 17 -67 1 -10 7 -15 13 -11 8 4 8 0 0 -15 -7 -12 -10 -25 -7 -30 3 -5 0
-14 -8 -20 -8 -7 -17 -23 -20 -36 -5 -18 -11 -23 -24 -18 -15 6 -15 4 -4 -9
11 -14 10 -21 -5 -44 -10 -16 -13 -25 -8 -22 7 4 11 -10 11 -38 0 -26 5 -49
13 -53 10 -6 9 -12 -4 -25 -9 -9 -13 -16 -8 -16 5 0 14 5 21 12 9 9 12 8 12
-5 0 -9 5 -17 11 -17 6 0 8 -8 4 -19 -3 -11 -1 -22 4 -26 7 -4 8 1 4 11 -4 12
-3 15 5 10 8 -5 12 -47 12 -129 0 -151 19 -263 50 -306 27 -35 28 -36 54 -16
11 8 28 15 38 15 16 0 18 10 18 98 0 90 2 98 22 107 33 15 56 55 62 105 8 70
16 87 44 100 15 7 35 16 44 21 26 13 27 12 17 -28 -5 -23 -4 -39 1 -41 6 -2
10 -10 10 -17 0 -8 11 -22 25 -33 14 -11 25 -24 25 -29 0 -5 -11 -20 -25 -33
-17 -16 -25 -34 -25 -57 0 -37 6 -45 58 -82 25 -17 32 -29 28 -44 -3 -11 2
-36 10 -55 7 -19 14 -36 14 -37 0 -2 -15 -12 -33 -24 -28 -17 -39 -18 -76 -10
-50 11 -106 38 -141 69 -46 40 -32 2 17 -44 33 -32 49 -42 55 -33 4 7 8 7 8 2
0 -6 27 -17 61 -24 55 -11 63 -10 80 5 10 9 19 13 19 9 0 -4 8 -1 18 8 10 10
22 14 25 10 4 -3 7 -1 7 6 0 8 8 11 20 8 11 -3 20 -2 20 2 0 4 12 8 28 9 23 2
21 -1 -17 -21 -25 -12 -45 -30 -47 -40 -5 -35 -14 -49 -29 -43 -8 3 -15 1 -15
-4 0 -6 7 -10 15 -10 8 0 14 -5 13 -12 -2 -7 17 -12 55 -14 63 -2 80 -10 57
-24 -8 -6 -10 -10 -5 -10 6 0 16 5 22 11 13 13 98 -22 86 -36 -5 -4 -2 -5 4
-1 19 11 83 -42 76 -62 -4 -15 -3 -15 7 -2 10 13 13 13 23 -4 7 -11 22 -30 34
-43 15 -16 20 -31 17 -50 -3 -20 -2 -24 5 -13 5 8 7 18 4 24 -3 5 -1 6 5 2 7
-4 12 -13 12 -19 0 -7 8 -28 18 -47 28 -52 50 -196 29 -183 -7 4 -5 -2 3 -12
14 -17 13 -18 -4 -11 -19 6 -19 6 -3 -12 9 -10 14 -22 11 -25 -4 -4 -8 -19 -9
-34 -6 -89 -7 -91 -16 -44 -5 24 -6 48 -3 52 3 5 0 9 -5 9 -6 0 -11 9 -11 19
0 11 -4 22 -9 26 -15 8 -69 -28 -96 -66 -26 -34 -31 -29 -27 24 1 9 -2 17 -6
17 -4 0 -6 15 -4 34 2 18 2 42 0 52 -3 15 -8 11 -26 -18 -13 -21 -30 -38 -38
-38 -8 0 -14 -4 -14 -9 0 -5 -8 -11 -19 -14 -17 -4 -18 1 -16 59 2 35 -1 64
-6 64 -5 0 -9 8 -9 19 0 30 -23 43 -46 27 -14 -10 -24 -11 -39 -4 -16 9 -18 8
-7 -3 15 -16 16 -33 0 -23 -6 4 -8 3 -5 -3 3 -5 -3 -22 -14 -39 -10 -16 -19
-37 -19 -46 0 -10 -4 -18 -9 -18 -6 0 -11 -19 -13 -42 l-4 -43 -22 48 c-25 55
-25 57 -13 57 5 0 12 -8 14 -17 4 -17 5 -17 6 -1 0 10 -8 22 -20 28 -11 7 -18
18 -15 25 3 8 1 17 -4 20 -4 3 -8 29 -8 58 0 72 -1 79 -11 73 -5 -3 -12 -30
-15 -59 -4 -29 -14 -66 -21 -81 -8 -16 -15 -34 -15 -41 0 -18 -30 -75 -40 -75
-4 0 -10 -9 -13 -21 -4 -14 -10 -18 -18 -13 -8 5 -11 2 -6 -8 5 -13 -29 -58
-44 -58 -2 0 -3 22 -2 49 1 40 -2 50 -16 54 -10 2 -21 15 -24 28 -6 23 -5 23
8 5 13 -18 14 -18 12 2 0 12 -7 19 -17 17 -8 -1 -14 -8 -13 -13 2 -6 -4 -9
-12 -6 -8 4 -15 10 -15 14 0 4 -11 5 -25 2 -29 -5 -29 -3 -10 -49 24 -57 15
-126 -14 -109 -6 4 -8 12 -5 18 4 7 2 8 -4 4 -7 -4 -12 -3 -12 2 0 8 -63 42
-80 42 -5 0 -14 -9 -20 -20 -9 -16 -8 -18 5 -14 12 5 15 -3 15 -45 0 -29 -5
-51 -11 -51 -5 0 -7 -6 -4 -12 4 -7 0 -5 -8 5 -8 9 -13 31 -12 47 1 16 -1 27
-6 24 -5 -3 -7 -11 -3 -17 3 -7 -1 -4 -9 6 -16 20 -32 23 -21 5 6 -10 4 -10
-7 0 -21 20 -34 14 -52 -23 -30 -62 -17 -215 19 -242 14 -10 14 -13 3 -13 -21
1 -67 29 -49 31 8 0 1 5 -15 10 -37 10 -98 67 -121 110 -22 44 -33 141 -22
214 4 33 10 71 12 85 9 62 19 100 27 100 4 0 11 15 14 34 4 19 15 43 26 55 10
11 19 25 19 31 0 10 26 44 67 85 12 13 19 26 15 31 -4 4 1 4 10 1 12 -4 15 -2
11 9 -3 7 -11 14 -18 14 -14 0 -72 -61 -102 -106 l-18 -28 -5 34 c-4 30 -9 36
-34 38 -37 4 -70 -12 -121 -60 -46 -44 -56 -46 -98 -16 -58 39 -97 91 -97 127
0 11 -5 21 -11 23 -15 5 -3 57 19 83 23 28 64 55 147 100 58 31 83 38 145 42
108 6 119 8 114 12 -2 2 6 20 18 39 23 38 33 88 18 97 -5 3 -6 13 -3 22 5 12
3 14 -7 8 -10 -6 -12 -4 -7 9 4 10 3 15 -3 11 -6 -3 -10 -1 -10 6 0 7 -3 9 -7
6 -3 -4 -12 2 -20 13 -8 11 -19 20 -25 20 -7 0 -6 -6 2 -15 14 -17 0 -21 -17
-4 -6 6 -33 12 -60 12 -43 2 -48 4 -34 15 10 8 10 11 2 6 -10 -5 -13 -3 -8 8
4 11 1 14 -12 11 -14 -3 -16 2 -13 35 2 22 -1 48 -6 59 -7 12 -7 25 -1 34 5 7
9 10 9 4 1 -32 17 -36 66 -14 48 22 57 24 102 27 13 1 20 7 17 12 -3 6 -2 10
3 10 14 0 35 52 37 93 2 73 -51 123 -122 115 -18 -2 -33 0 -33 4 0 4 8 8 18 9
14 0 14 2 -3 9 -16 6 -22 2 -33 -23 -10 -22 -16 -27 -25 -18 -19 19 -35 12
-33 -14 3 -27 -17 -51 -33 -40 -15 9 -63 -26 -57 -41 3 -8 -3 -18 -14 -24 -24
-13 -40 -13 -20 0 13 8 12 10 -5 11 -11 1 -24 1 -29 0 -4 -1 -14 3 -21 9 -7 6
-21 8 -31 4 -18 -5 -18 -5 -1 6 10 6 25 9 33 6 8 -3 14 -2 14 3 0 18 -39 18
-59 0 -21 -20 -47 -26 -36 -9 8 13 -8 13 -22 -1 -8 -8 -13 -7 -18 1 -4 6 -2
17 4 23 9 9 10 7 5 -8 -7 -17 -6 -18 8 -5 11 10 12 17 5 22 -8 5 -6 18 7 45
10 21 21 32 23 25 3 -7 -1 -19 -7 -27 -8 -9 -8 -15 -2 -15 6 0 13 6 15 13 4
10 6 10 6 0 1 -7 5 -13 10 -13 6 0 3 12 -5 28 -17 32 -18 56 -3 46 8 -4 9 1 4
16 -5 15 -3 20 3 16 6 -3 14 -1 18 5 4 8 3 9 -4 5 -7 -4 -12 -2 -12 3 0 6 4
11 9 11 5 0 11 9 14 21 4 13 10 18 18 13 7 -4 10 -3 6 3 -6 9 2 30 39 94 6 11
27 31 45 46 19 14 27 23 19 19 -8 -3 -22 -9 -31 -12 -9 -3 -23 -18 -30 -32 -8
-15 -20 -33 -26 -40 -7 -7 -13 -18 -13 -23 0 -6 -11 -25 -24 -42 -13 -18 -43
-72 -66 -121 -30 -63 -45 -85 -51 -75 -5 8 -8 63 -8 123 0 109 0 109 -30 140
-54 53 -151 43 -179 -20 -27 -59 -15 -91 70 -183 52 -55 79 -96 78 -119 0 -6
-70 -42 -82 -42 -2 0 -22 25 -43 56 -49 71 -69 84 -126 84 -43 0 -51 -4 -79
-37 -27 -33 -31 -44 -27 -80 7 -64 49 -94 152 -107 l50 -7 0 -64 0 -64 -102 2
c-99 2 -102 1 -131 -26 -16 -15 -35 -45 -42 -66 -33 -102 92 -203 180 -144 14
9 56 41 93 71 37 30 70 52 73 49 3 -3 -6 -59 -20 -124 -25 -111 -35 -175 -56
-353 -6 -41 -12 -94 -16 -116 -4 -26 -2 -44 5 -48 6 -4 11 -35 11 -69 l-1 -62
-30 38 c-26 31 -37 37 -70 37 -52 0 -89 -35 -89 -83 0 -42 25 -67 88 -87 47
-15 47 -15 44 -55 -2 -22 -5 -41 -7 -43 -1 -1 -28 1 -60 6 -75 12 -105 3 -132
-38 -28 -40 -29 -65 -3 -107 26 -44 80 -54 130 -26 19 11 55 32 80 46 57 32
77 21 86 -47 6 -44 5 -50 -23 -75 -53 -48 -61 -87 -28 -138 15 -22 74 -41 93
-29 9 6 24 -23 37 -74 13 -50 77 -215 86 -225 15 -14 0 39 -26 100 -20 44 -36
100 -37 122 0 5 -3 13 -8 18 -17 21 -21 72 -7 83 12 10 19 57 19 122 0 8 6 35
14 60 13 43 17 46 65 57 48 12 52 11 70 -10 10 -12 18 -26 19 -32 0 -22 51
-68 77 -71 39 -5 94 6 87 17 -3 5 1 12 9 14 8 4 14 23 16 50 2 52 -21 79 -77
91 -21 4 -40 8 -44 9 -5 2 -14 3 -21 4 -9 1 -13 21 -12 71 0 68 1 71 23 65 78
-19 107 -17 140 11 22 18 31 33 27 45 -3 9 -1 20 5 24 5 3 10 -1 10 -9 0 -9 4
-16 10 -16 5 0 11 -15 14 -32 24 -168 40 -212 97 -265 32 -28 209 -114 221
-107 5 4 -6 23 -26 43 -19 20 -42 53 -51 73 -28 69 -13 193 24 193 20 0 51
-46 55 -80 2 -16 8 -31 13 -32 16 -6 43 78 43 130 0 26 4 47 8 47 19 0 55 -51
56 -80 1 -43 21 -37 46 16 19 38 22 56 17 107 l-7 62 35 -37 c37 -40 42 -65
24 -117 -6 -18 -8 -35 -5 -39 14 -13 126 120 162 193 20 42 38 74 40 72 2 -1
6 -18 9 -37 6 -35 61 -140 73 -140 4 0 15 33 25 73 26 105 84 184 108 146 18
-30 21 -88 5 -120 -20 -40 -21 -39 9 -39 28 0 95 30 95 42 0 4 4 8 9 8 5 0 11
-23 13 -51 3 -29 13 -58 22 -67 16 -16 18 -16 28 2 6 11 26 36 44 55 26 28 36
33 43 22 8 -12 28 -121 34 -186 2 -26 5 -22 22 30 16 48 20 89 20 205 0 164
-10 203 -77 300 -78 113 -248 208 -346 193 -25 -3 -25 -5 -12 33 13 36 83 84
122 84 30 0 40 20 11 21 -16 0 -16 1 1 12 90 57 112 125 55 178 -21 20 -26 29
-16 29 31 0 66 23 77 51 7 15 10 56 8 91 l-3 64 26 -9 c45 -18 98 7 127 59 10
18 13 17 44 -13 38 -37 86 -44 109 -17 7 8 14 39 17 69 4 53 5 54 27 39 38
-25 92 -21 123 9 l27 26 23 -26 c18 -20 29 -24 57 -21 31 3 35 1 35 -18 0 -35
45 -81 77 -80 26 1 28 -2 31 -39 5 -85 6 -86 60 -68 26 9 59 27 74 41 29 26
54 82 37 82 -5 0 -9 -4 -9 -10 0 -18 -18 -10 -23 10 -6 24 13 102 37 148 17
32 17 34 -1 48 -10 8 -28 17 -40 20 -25 7 -26 12 -14 67 l9 37 -34 0 c-38 0
-41 5 -17 32 22 24 15 29 -54 35 -56 5 -60 7 -69 37 -11 39 -45 56 -110 56
-49 0 -52 1 -58 31 -3 17 -19 44 -35 60 -48 48 -109 38 -182 -28 -26 -24 -26
-24 -58 -5 -17 10 -29 21 -26 24 3 3 -1 8 -10 12 -11 4 -14 2 -9 -6 5 -8 2 -9
-12 -4 -10 5 -27 10 -36 13 -21 6 -37 52 -31 86 4 21 -2 34 -30 62 -32 32 -59
41 -103 36 -11 -1 -44 55 -44 76 -1 14 -34 47 -61 62 -36 18 -64 7 -89 -35
-12 -19 -28 -40 -34 -47 -20 -20 -50 -89 -48 -110 1 -27 -35 -77 -56 -77 -21
-1 -52 -23 -52 -39 0 -6 -4 -19 -9 -29 -5 -9 -17 -34 -27 -54 -10 -21 -21 -38
-25 -38 -8 0 -29 72 -29 102 0 21 -9 29 -49 47 -27 11 -54 21 -60 21 -6 0 -34
9 -64 20 -65 24 -87 58 -63 95 8 12 52 45 98 73 175 107 219 144 245 205 33
77 30 115 -12 159 -19 20 -35 39 -35 42 0 3 15 13 33 22 17 9 34 20 37 24 14
19 181 101 192 94 6 -4 8 -3 5 3 -4 6 16 21 46 34 93 42 87 41 71 11 -17 -33
-17 -44 -2 -78 11 -23 16 -26 53 -21 22 2 78 22 125 44 47 22 90 42 95 44 6 2
34 20 63 39 41 27 52 40 52 61 0 15 -7 32 -15 39 -17 14 -13 22 13 28 9 2 28
6 42 8 14 3 34 7 46 8 11 1 25 6 32 10 7 4 17 4 24 0 7 -4 8 -3 4 4 -5 8 4 12
28 12 46 0 48 0 67 10 8 5 42 11 75 14 32 3 86 11 119 18 36 7 162 11 310 11
247 1 418 -15 590 -53 28 -6 62 -14 77 -16 14 -3 73 -19 130 -35 56 -17 113
-33 125 -36 13 -3 20 -10 16 -16 -4 -6 -1 -7 7 -2 7 4 16 2 21 -6 6 -10 9 -11
9 -1 0 8 5 9 18 3 9 -5 28 -13 42 -18 14 -6 43 -18 65 -28 42 -19 48 -22 66
-24 5 0 7 -6 3 -13 -4 -7 -3 -8 4 -4 6 4 19 3 29 -2 10 -5 37 -20 61 -32 24
-12 46 -19 49 -16 9 8 8 8 -87 53 -437 206 -951 293 -1480 252z m-540 -139 c8
-5 12 -11 10 -14 -8 -7 -60 6 -60 15 0 12 31 11 50 -1z m-57 -14 c4 -9 14 -12
25 -9 11 2 23 0 27 -7 5 -8 10 -8 21 1 11 9 14 8 14 -3 0 -23 -188 -120 -219
-114 -14 3 -20 3 -13 0 10 -5 10 -9 1 -20 -6 -8 -15 -14 -20 -14 -4 0 -20 -5
-36 -12 -42 -17 -53 -18 -53 -3 0 7 6 16 13 18 6 3 2 6 -10 6 -13 1 -23 7 -23
16 0 20 36 55 56 55 9 0 25 11 35 24 13 17 25 22 41 18 16 -4 19 -2 13 9 -8
12 -6 12 8 1 20 -17 41 -6 32 16 -3 9 -3 14 0 10 4 -3 21 0 38 7 41 18 44 18
50 1z m-98 -26 c3 -5 1 -10 -4 -10 -6 0 -11 5 -11 10 0 6 2 10 4 10 3 0 8 -4
11 -10z m-646 -357 c-10 -46 -34 -62 -94 -62 -46 0 -48 1 -30 14 11 8 33 25
49 37 52 40 58 45 71 45 9 0 10 -10 4 -34z m-539 -463 c0 -5 -4 -10 -10 -10
-5 0 -10 5 -10 10 0 6 5 10 10 10 6 0 10 -4 10 -10z m-140 -596 c0 -8 -32 -33
-42 -34 -5 0 -8 5 -8 10 0 6 7 10 15 10 8 0 15 5 15 10 0 6 5 10 10 10 6 0 10
-3 10 -6z m30 -138 c0 -3 -4 -8 -10 -11 -5 -3 -10 -1 -10 4 0 6 5 11 10 11 6
0 10 -2 10 -4z m95 -11 c9 -3 -54 -30 -65 -28 -2 1 -7 10 -11 20 -6 16 -2 18
30 15 20 -2 41 -5 46 -7z m-75 -159 c0 -2 -7 -7 -16 -10 -8 -3 -12 -2 -9 4 6
10 25 14 25 6z m-457 -136 c-3 -11 -1 -20 5 -20 6 0 12 6 14 13 2 10 11 11 36
5 21 -6 32 -14 29 -22 -3 -7 1 -13 8 -13 7 0 11 6 8 13 -3 9 2 11 17 7 12 -3
18 -9 13 -12 -5 -3 -12 -14 -16 -23 -3 -10 -12 -18 -19 -18 -9 0 -8 3 2 10 13
8 12 10 -3 10 -14 0 -17 -5 -12 -21 5 -16 -2 -30 -31 -60 -20 -21 -41 -36 -46
-33 -5 3 -4 12 3 20 7 9 8 14 1 14 -18 0 -24 -20 -11 -36 9 -11 10 -17 2 -22
-6 -4 -15 -20 -18 -35 -4 -15 -11 -27 -16 -27 -5 0 -9 -5 -9 -11 0 -5 5 -7 11
-4 6 4 9 1 8 -6 -4 -22 12 -69 23 -69 6 0 7 -7 4 -16 -3 -9 -2 -12 5 -9 5 4
21 -1 35 -10 14 -9 32 -14 40 -11 8 3 14 1 14 -5 0 -6 8 -6 21 1 11 7 23 9 26
6 4 -3 13 3 20 14 17 24 33 18 33 -11 0 -11 14 -40 30 -64 17 -24 30 -47 30
-52 0 -16 42 -34 89 -40 47 -5 48 -5 96 46 27 28 56 51 66 51 52 0 64 -30 27
-69 -17 -19 -19 -27 -10 -42 10 -15 9 -17 -3 -13 -10 4 -16 -5 -21 -30 -3 -20
-10 -36 -15 -36 -5 0 -6 -7 -2 -16 5 -13 8 -13 15 -2 7 9 8 7 4 -7 -3 -11 -8
-41 -12 -67 -3 -28 -10 -45 -16 -42 -6 4 -7 -2 -3 -16 5 -16 4 -20 -5 -15 -6
4 -10 21 -8 38 2 25 -1 32 -17 35 -16 3 -18 1 -7 -9 15 -16 16 -39 1 -39 -5 0
-8 4 -5 9 3 4 -5 18 -18 30 -23 22 -72 31 -94 17 -6 -4 -44 10 -84 31 -40 21
-78 38 -85 39 -17 3 -83 55 -83 66 0 5 5 6 12 2 7 -4 8 -3 4 4 -4 6 -12 9 -19
6 -7 -2 -13 4 -14 16 -1 11 2 18 7 15 6 -3 7 1 4 10 -5 11 -2 14 10 9 9 -3 16
-1 16 6 0 6 -5 8 -12 4 -7 -5 -9 -2 -6 7 4 10 -4 14 -31 16 -31 1 -33 0 -13
-8 13 -5 20 -14 16 -20 -3 -6 -9 -7 -13 -3 -3 5 -15 14 -25 20 -11 6 -22 17
-24 25 -3 11 -1 11 8 -1 10 -13 11 -12 6 3 -3 10 -6 24 -6 30 0 8 -4 7 -9 -2
-13 -20 -26 9 -40 83 -13 70 -14 89 -3 82 4 -2 9 23 10 56 2 33 12 94 23 136
10 41 19 84 19 94 0 11 4 17 9 14 5 -3 7 -15 4 -26z m376 11 c36 -36 42 -56
24 -82 -9 -13 -10 -19 -3 -12 7 6 20 9 29 6 14 -4 14 -3 1 6 -12 9 -12 11 -1
11 13 0 40 -27 41 -42 0 -3 -15 -10 -32 -14 -18 -4 -35 -9 -38 -10 -3 -1 -15
-5 -27 -9 -13 -4 -23 -12 -23 -17 0 -6 -7 -7 -16 -4 -8 3 -13 2 -10 -3 3 -5
-18 -21 -47 -36 -28 -15 -55 -32 -58 -37 -4 -6 -8 4 -11 21 -2 17 -1 31 4 31
4 0 8 10 8 23 0 18 -2 19 -10 7 -8 -12 -10 -11 -9 5 1 11 6 42 12 69 11 44 16
50 51 62 21 8 43 11 50 7 6 -3 8 -3 4 2 -6 6 15 24 40 34 1 1 11 -8 21 -18z
m-436 -455 c14 -42 14 -44 -4 -49 -17 -5 -19 1 -19 44 0 27 2 49 4 49 2 0 11
-20 19 -44z m215 -226 c37 -18 78 -42 91 -54 13 -11 21 -15 17 -9 -5 9 -2 11
10 6 16 -6 16 -7 -1 -19 -9 -7 -24 -10 -33 -7 -9 4 -13 2 -9 -4 8 -13 -43 -33
-70 -28 -10 2 -22 4 -26 4 -5 1 -6 5 -3 9 3 5 -3 8 -12 8 -9 0 -31 1 -49 2
l-32 2 3 63 c5 108 3 101 27 78 11 -10 51 -34 87 -51z m-218 -20 c30 -42 31
-63 6 -77 -34 -20 -37 -16 -35 47 1 33 3 60 5 60 1 0 12 -14 24 -30z m35 -390
c4 -6 11 -7 17 -4 5 4 2 -5 -7 -20 -20 -30 -36 -26 -33 9 2 26 12 32 23 15z"/>
<path d="M5542 9135 c20 -11 33 -12 50 -5 22 10 22 10 -4 5 -15 -3 -30 -1 -33
5 -3 5 -14 10 -23 10 -12 -1 -9 -5 10 -15z"/>
<path d="M5385 9010 c4 -6 11 -8 16 -5 14 9 11 15 -7 15 -8 0 -12 -5 -9 -10z"/>
<path d="M4230 7560 c0 -5 7 -7 15 -4 8 4 15 8 15 10 0 2 -7 4 -15 4 -8 0 -15
-4 -15 -10z"/>
<path d="M3746 7202 c-2 -4 -1 -14 3 -21 6 -9 11 -10 15 -2 4 6 2 11 -4 11 -6
0 -8 5 -5 10 3 6 4 10 1 10 -3 0 -7 -4 -10 -8z"/>
<path d="M3730 7171 c0 -6 4 -13 10 -16 6 -3 7 1 4 9 -7 18 -14 21 -14 7z"/>
<path d="M3725 7130 c-3 -5 -1 -10 4 -10 6 0 11 5 11 10 0 6 -2 10 -4 10 -3 0
-8 -4 -11 -10z"/>
<path d="M3723 7083 c-1 -19 1 -22 8 -12 11 17 12 39 2 39 -5 0 -9 -12 -10
-27z"/>
<path d="M3707 6983 c-12 -12 -7 -19 15 -20 13 -1 18 1 13 5 -6 4 -13 11 -16
15 -3 4 -9 4 -12 0z"/>
<path d="M3935 6900 c-3 -5 -1 -10 4 -10 6 0 11 5 11 10 0 6 -2 10 -4 10 -3 0
-8 -4 -11 -10z"/>
<path d="M3955 6830 c3 -5 8 -10 11 -10 2 0 4 5 4 10 0 6 -5 10 -11 10 -5 0
-7 -4 -4 -10z"/>
<path d="M4265 6789 c-11 -17 1 -21 15 -4 8 9 8 15 2 15 -6 0 -14 -5 -17 -11z"/>
<path d="M4250 6710 c0 -11 2 -20 4 -20 2 0 6 9 9 20 3 11 1 20 -4 20 -5 0 -9
-9 -9 -20z"/>
<path d="M3890 6713 c8 -3 19 -11 23 -17 6 -7 7 -6 4 4 -2 8 -12 16 -23 17
-13 2 -15 1 -4 -4z"/>
<path d="M3880 6680 c0 -5 5 -10 10 -10 6 0 10 5 10 10 0 6 -4 10 -10 10 -5 0
-10 -4 -10 -10z"/>
<path d="M3988 6623 c7 -3 16 -2 19 1 4 3 -2 6 -13 5 -11 0 -14 -3 -6 -6z"/>
<path d="M4241 6594 c0 -11 3 -14 6 -6 3 7 2 16 -1 19 -3 4 -6 -2 -5 -13z"/>
<path d="M4013 7250 c-32 -13 -28 -21 5 -10 15 5 36 11 47 13 16 4 15 5 -5 5
-14 0 -35 -3 -47 -8z"/>
<path d="M4033 7223 c9 -2 23 -2 30 0 6 3 -1 5 -18 5 -16 0 -22 -2 -12 -5z"/>
<path d="M3984 7196 c-3 -8 -4 -23 -2 -33 3 -11 6 -6 9 15 6 34 2 42 -7 18z"/>
<path d="M6415 9234 c-151 -15 -351 -53 -412 -80 -21 -9 -83 -32 -138 -51 -55
-19 -105 -39 -112 -45 -21 -17 -15 -35 15 -41 16 -3 39 -18 50 -34 12 -15 42
-55 67 -87 25 -33 45 -68 45 -79 0 -11 -13 -35 -30 -54 -35 -39 -40 -99 -15
-159 8 -19 13 -36 12 -38 -1 -1 3 -9 9 -17 6 -8 14 -27 18 -44 18 -73 55 -92
119 -59 38 20 64 48 82 89 15 35 68 93 109 119 27 17 96 45 221 87 107 37 223
136 257 219 6 14 16 39 23 55 59 138 58 142 -49 194 -45 23 -93 40 -106 40
-14 -1 -88 -8 -165 -15z m225 -22 c6 -8 39 -28 84 -50 25 -13 28 -18 22 -50
-3 -19 -19 -63 -36 -98 -24 -47 -36 -61 -48 -57 -14 4 -14 3 -3 -5 12 -9 12
-14 -4 -38 -30 -45 -132 -124 -161 -124 -9 0 -21 -6 -28 -13 -8 -7 -33 -19
-57 -26 -24 -8 -62 -22 -84 -31 -46 -20 -78 -33 -85 -34 -3 -1 -19 -11 -36
-23 -17 -12 -35 -19 -39 -15 -5 4 -5 2 -1 -5 3 -6 0 -15 -7 -20 -19 -11 -65
-85 -72 -116 -10 -40 -88 -47 -98 -9 -4 15 -5 15 -6 -1 0 -10 9 -21 21 -26 14
-5 17 -10 10 -15 -19 -11 -48 11 -62 46 -6 18 -16 42 -21 53 -4 11 -14 39 -20
63 -8 29 -15 38 -21 30 -5 -8 -8 -1 -8 20 0 17 5 32 10 32 6 0 10 6 10 13 0 8
9 22 20 32 11 10 25 36 32 57 10 35 9 41 -14 66 -14 15 -39 47 -56 72 -51 73
-71 92 -97 94 -14 0 -25 3 -25 6 0 11 149 52 161 45 7 -5 10 -4 6 2 -10 15 70
45 102 39 14 -4 33 -1 41 4 11 8 7 9 -15 5 l-30 -6 25 15 c14 8 28 12 33 9 4
-2 13 0 20 5 7 5 30 13 52 16 22 4 54 12 70 17 17 5 100 16 185 24 146 12 219
12 230 -3z"/>
<path d="M6560 9210 c0 -5 5 -10 10 -10 6 0 10 5 10 10 0 6 -4 10 -10 10 -5 0
-10 -4 -10 -10z"/>
<path d="M6418 9193 c7 -3 16 -2 19 1 4 3 -2 6 -13 5 -11 0 -14 -3 -6 -6z"/>
<path d="M6140 9154 c-20 -11 -21 -14 -7 -14 10 0 25 7 33 15 19 18 8 18 -26
-1z"/>
<path d="M6660 9160 c0 -5 7 -10 16 -10 8 0 12 5 9 10 -3 6 -10 10 -16 10 -5
0 -9 -4 -9 -10z"/>
<path d="M5948 9083 c7 -3 16 -2 19 1 4 3 -2 6 -13 5 -11 0 -14 -3 -6 -6z"/>
<path d="M5870 9060 c0 -5 5 -10 10 -10 6 0 10 5 10 10 0 6 -4 10 -10 10 -5 0
-10 -4 -10 -10z"/>
<path d="M5887 8994 c3 -7 9 -14 14 -14 14 0 10 17 -5 23 -10 4 -13 1 -9 -9z"/>
<path d="M5966 8783 c-3 -10 -9 -24 -12 -30 -3 -7 -2 -13 4 -13 7 0 32 42 32
55 0 13 -18 3 -24 -12z"/>
<path d="M5991 8754 c0 -11 3 -14 6 -6 3 7 2 16 -1 19 -3 4 -6 -2 -5 -13z"/>
<path d="M6333 8763 c9 -2 23 -2 30 0 6 3 -1 5 -18 5 -16 0 -22 -2 -12 -5z"/>
<path d="M6170 8685 c-8 -9 -8 -15 -2 -15 12 0 26 19 19 26 -2 2 -10 -2 -17
-11z"/>
<path d="M6081 8564 c0 -11 3 -14 6 -6 3 7 2 16 -1 19 -3 4 -6 -2 -5 -13z"/>
<path d="M9790 9086 c-61 -23 -236 -126 -390 -229 -87 -59 -76 -51 -162 -122
-82 -68 -97 -91 -74 -113 14 -14 21 -14 53 -3 52 18 169 91 281 174 51 38 95
67 98 65 2 -3 -11 -27 -29 -54 -37 -55 -67 -111 -67 -128 0 -6 -7 -23 -14 -38
-32 -61 -69 -187 -74 -251 -5 -72 11 -107 49 -107 18 0 135 58 161 79 7 6 33
27 58 47 60 48 74 59 154 132 38 35 100 81 138 104 95 56 170 125 166 152 -7
52 -101 16 -303 -115 -134 -88 -129 -85 -116 -63 52 92 166 359 176 415 11 62
-28 83 -105 55z"/>
<path d="M2883 8960 c-44 -20 -88 -74 -97 -122 -3 -16 -8 -39 -11 -53 -4 -16
-12 -25 -24 -25 -53 0 -67 -36 -34 -88 26 -41 154 -182 165 -182 6 0 45 -24
87 -54 42 -29 97 -64 121 -76 25 -13 59 -33 75 -45 36 -27 119 -58 202 -75 49
-10 69 -10 92 0 38 15 43 40 24 101 -17 51 -43 79 -145 155 -52 38 -56 52 -33
107 24 57 19 108 -18 179 -44 86 -140 160 -236 182 -86 19 -118 19 -168 -4z
m180 -166 c57 -29 97 -64 117 -104 22 -43 26 -75 10 -85 -24 -15 -281 101
-305 138 -17 26 -10 64 14 71 29 9 131 -3 164 -20z"/>
<path d="M7858 8953 c6 -2 9 -10 6 -15 -4 -7 -2 -8 5 -4 13 9 5 26 -12 25 -9
0 -8 -2 1 -6z"/>
<path d="M5091 8921 c-10 -7 -12 -26 -6 -88 6 -76 6 -81 -19 -110 -14 -17 -26
-36 -26 -42 0 -6 -4 -11 -10 -11 -5 0 -10 -7 -10 -15 0 -8 -4 -15 -10 -15 -14
0 -13 -43 2 -58 7 -7 24 -12 39 -12 30 0 52 27 63 78 4 17 14 32 21 32 8 0 30
15 48 34 19 18 43 39 54 45 30 15 123 1 123 -19 0 -5 18 -14 40 -20 21 -6 56
-27 77 -46 42 -40 83 -64 108 -64 31 0 82 31 94 57 16 34 -7 69 -58 91 -22 10
-49 33 -66 59 -33 48 -46 53 -133 53 -57 0 -63 2 -72 25 -7 18 -17 25 -35 25
-25 0 -63 -15 -75 -29 -13 -16 -73 -42 -85 -37 -8 3 -18 20 -23 37 -9 36 -20
43 -41 30z m28 -28 c-10 -62 29 -85 90 -54 22 12 41 26 41 32 0 6 7 9 15 5 8
-3 14 0 12 7 -1 6 9 13 23 14 18 2 20 1 8 -5 -10 -4 -14 -12 -10 -17 8 -11 21
-13 107 -18 69 -4 101 -16 70 -27 -17 -6 -17 -7 -2 -13 9 -3 17 -2 17 3 0 17
25 11 43 -10 9 -11 17 -24 17 -29 0 -5 12 -16 26 -26 21 -13 24 -19 13 -26
-12 -7 -12 -9 0 -9 8 0 11 -6 7 -16 -3 -8 -2 -12 4 -9 6 3 10 13 10 21 0 8 6
14 14 14 10 0 12 -7 9 -22 -5 -22 -5 -22 9 -4 13 16 16 17 21 3 3 -9 -5 -27
-19 -44 -20 -23 -26 -26 -34 -13 -8 13 -10 12 -10 -2 0 -37 -35 -19 -157 82
-7 5 -17 10 -22 10 -6 0 -30 11 -53 24 -74 41 -147 30 -203 -30 -11 -12 -30
-27 -43 -33 -12 -7 -25 -24 -28 -39 -8 -38 -38 -77 -53 -67 -20 12 -3 57 32
90 38 35 37 33 37 83 0 27 3 33 10 22 5 -8 10 -10 10 -4 0 5 -4 14 -9 20 -16
15 -26 94 -12 94 6 0 10 -3 10 -7z"/>
<path d="M5258 8833 c7 -3 16 -2 19 1 4 3 -2 6 -13 5 -11 0 -14 -3 -6 -6z"/>
<path d="M5378 8833 c7 -3 16 -2 19 1 4 3 -2 6 -13 5 -11 0 -14 -3 -6 -6z"/>
<path d="M5378 8813 c6 -2 18 -2 25 0 6 3 1 5 -13 5 -14 0 -19 -2 -12 -5z"/>
<path d="M5148 8803 c6 -2 18 -2 25 0 6 3 1 5 -13 5 -14 0 -19 -2 -12 -5z"/>
<path d="M5160 8779 c0 -5 5 -7 10 -4 6 3 10 8 10 11 0 2 -4 4 -10 4 -5 0 -10
-5 -10 -11z"/>
<path d="M5130 8750 c0 -5 5 -10 10 -10 6 0 10 5 10 10 0 6 -4 10 -10 10 -5 0
-10 -4 -10 -10z"/>
<path d="M5540 8740 c0 -5 5 -10 10 -10 6 0 10 5 10 10 0 6 -4 10 -10 10 -5 0
-10 -4 -10 -10z"/>
<path d="M5050 8628 c-12 -22 -12 -22 6 -6 10 10 15 20 12 24 -4 3 -12 -5 -18
-18z"/>
<path d="M7915 8910 c3 -5 8 -10 11 -10 2 0 4 5 4 10 0 6 -5 10 -11 10 -5 0
-7 -4 -4 -10z"/>
<path d="M8001 8867 c2 -2 11 -8 20 -15 12 -9 16 -9 16 1 0 7 -9 14 -20 14
-11 1 -18 1 -16 0z"/>
<path d="M7840 8843 c-258 -40 -350 -87 -350 -177 0 -24 -38 -56 -112 -93 -20
-10 -48 -33 -61 -51 -22 -29 -23 -37 -15 -84 11 -59 33 -98 57 -98 9 0 29 14
44 30 16 17 37 30 46 30 18 0 71 -42 71 -57 0 -18 49 -63 67 -63 52 0 117 115
92 161 -26 49 14 172 62 196 34 16 124 28 116 15 -4 -5 -23 -13 -42 -16 -38
-7 -36 -5 -54 -114 -13 -83 -8 -96 38 -87 20 4 41 10 46 15 6 4 21 11 35 15
22 6 21 3 -13 -29 -21 -20 -46 -40 -56 -45 -10 -6 -26 -35 -35 -65 -20 -62
-27 -70 -97 -103 -58 -26 -115 -29 -143 -8 -25 19 -36 19 -36 2 0 -39 109 -48
193 -17 57 21 107 75 107 115 0 21 40 85 54 85 5 0 18 8 28 17 17 15 21 15 29
3 9 -13 10 -13 7 -1 -3 8 5 24 16 35 l21 21 -63 3 -63 3 5 47 5 47 -10 -40
c-5 -21 -7 -45 -5 -51 3 -7 -4 -14 -15 -17 -11 -3 -22 -7 -26 -9 -10 -5 -13
41 -3 47 6 3 10 -2 10 -11 0 -10 3 -15 6 -12 3 4 1 21 -4 40 -14 51 2 86 44
94 19 3 34 9 35 13 0 3 2 15 4 26 7 35 -34 41 -93 12 -17 -8 -25 -8 -34 1 -18
18 -25 15 -32 -14 -5 -18 -12 -24 -22 -20 -8 3 -12 2 -9 -4 3 -5 -6 -31 -21
-59 -25 -46 -26 -52 -14 -93 7 -23 13 -56 13 -71 0 -30 -52 -102 -74 -102 -7
0 -33 26 -57 58 -39 51 -47 57 -81 57 -28 0 -45 -7 -67 -29 l-30 -30 -16 35
c-13 28 -13 34 -2 34 8 0 14 10 13 23 0 12 -3 16 -6 10 -7 -18 -23 -16 -23 3
0 29 32 70 69 88 96 46 118 67 127 122 4 28 11 44 20 44 8 0 14 4 14 10 0 24
88 55 222 79 93 17 99 17 127 0 16 -9 32 -22 35 -28 4 -7 42 -11 92 -11 90 0
161 -20 148 -41 -4 -7 -3 -9 3 -6 6 4 17 -1 24 -10 12 -15 12 -16 -8 -11 -12
3 -23 2 -25 -3 -2 -4 -30 -11 -63 -14 -89 -9 -111 -15 -96 -24 9 -6 10 -11 2
-15 -6 -4 -11 -13 -11 -19 0 -8 3 -8 9 1 6 10 13 5 28 -18 19 -31 41 -47 92
-70 19 -8 30 -6 57 9 19 11 42 18 52 15 14 -5 15 -4 2 5 -13 10 -13 13 2 21
29 18 60 68 47 76 -8 5 -9 3 -4 -6 6 -10 4 -12 -11 -6 -10 4 -16 4 -12 1 7 -8
-38 -57 -74 -80 -17 -10 -37 -15 -51 -11 -23 5 -97 72 -97 88 0 4 21 8 47 8
48 0 113 18 125 35 4 5 15 2 27 -10 12 -10 23 -16 25 -14 3 3 -7 13 -20 24
-14 11 -37 30 -50 42 -33 31 -76 51 -93 45 -8 -2 -11 -1 -8 4 3 5 -24 7 -60 6
-46 -3 -69 0 -81 11 -17 15 -78 48 -84 46 -2 -1 -14 -3 -28 -6z"/>
<path d="M8050 8831 c0 -6 4 -13 10 -16 6 -3 7 1 4 9 -7 18 -14 21 -14 7z"/>
<path d="M4892 8798 c-14 -14 -16 -42 -3 -34 7 5 23 46 17 46 -1 0 -7 -5 -14
-12z"/>
<path d="M7858 8803 c7 -3 16 -2 19 1 4 3 -2 6 -13 5 -11 0 -14 -3 -6 -6z"/>
<path d="M4962 8770 c0 -14 2 -19 5 -12 2 6 2 18 0 25 -3 6 -5 1 -5 -13z"/>
<path d="M7965 8750 c4 -6 11 -8 16 -5 14 9 11 15 -7 15 -8 0 -12 -5 -9 -10z"/>
<path d="M8096 8753 c5 -5 12 -12 16 -18 4 -6 8 -2 8 8 0 9 -7 17 -17 17 -9 0
-12 -3 -7 -7z"/>
<path d="M8008 8733 c6 -2 18 -2 25 0 6 3 1 5 -13 5 -14 0 -19 -2 -12 -5z"/>
<path d="M7940 8721 c0 -6 4 -12 8 -15 5 -3 9 1 9 9 0 8 -4 15 -9 15 -4 0 -8
-4 -8 -9z"/>
<path d="M7830 8700 c-18 -12 -2 -12 25 0 13 6 15 9 5 9 -8 0 -22 -4 -30 -9z"/>
<path d="M4828 8683 c6 -2 18 -2 25 0 6 3 1 5 -13 5 -14 0 -19 -2 -12 -5z"/>
<path d="M6738 8683 c-10 -2 -18 -8 -18 -12 0 -5 -18 -11 -40 -15 -34 -5 -40
-10 -40 -30 0 -43 17 -72 50 -86 28 -11 37 -10 81 11 53 24 84 65 73 94 -7 17
-56 46 -76 44 -7 -1 -21 -3 -30 -6z m70 -36 l23 -13 -27 -27 c-15 -15 -31 -27
-36 -27 -5 0 -16 -7 -24 -15 -20 -20 -34 -19 -35 3 0 10 -3 12 -6 5 -7 -20
-19 -15 -31 12 -15 32 -6 55 22 55 11 0 28 5 36 10 20 13 50 12 78 -3z"/>
<path d="M6754 8642 c-8 -5 -6 -13 6 -25 12 -12 20 -15 25 -8 3 6 -1 14 -10
17 -13 6 -14 8 -3 15 7 5 9 9 3 9 -5 0 -15 -4 -21 -8z"/>
<path d="M7891 8680 c-1 -23 15 -45 23 -31 4 6 3 11 -3 11 -5 0 -12 8 -14 18
-3 12 -5 13 -6 2z"/>
<path d="M4715 8670 c3 -5 12 -10 20 -10 8 0 17 5 20 10 4 6 -5 10 -20 10 -15
0 -24 -4 -20 -10z"/>
<path d="M7680 8669 c0 -5 5 -7 10 -4 6 3 10 8 10 11 0 2 -4 4 -10 4 -5 0 -10
-5 -10 -11z"/>
<path d="M4906 8643 c-6 -14 -5 -15 5 -6 7 7 10 15 7 18 -3 3 -9 -2 -12 -12z"/>
<path d="M5328 8649 c-60 -34 33 -129 125 -129 84 0 101 34 45 86 -55 51 -127
69 -170 43z m102 -24 c7 -8 17 -15 22 -15 6 0 22 -13 38 -30 l27 -29 -44 -7
c-37 -5 -50 -3 -73 15 -16 11 -34 21 -40 21 -6 0 -9 10 -7 23 2 12 2 16 0 9
-6 -16 -23 -6 -23 14 0 20 83 19 100 -1z"/>
<path d="M4870 8620 c-9 -6 -10 -10 -3 -10 6 0 15 5 18 10 8 12 4 12 -15 0z"/>
<path d="M8328 8599 c-10 -5 -18 -14 -18 -19 0 -5 8 -9 18 -8 9 0 30 -3 47 -7
16 -3 27 -3 23 0 -6 6 -29 12 -52 14 -4 1 -6 8 -2 16 6 17 6 17 -16 4z"/>
<path d="M4580 8589 c0 -5 5 -7 10 -4 6 3 10 8 10 11 0 2 -4 4 -10 4 -5 0 -10
-5 -10 -11z"/>
<path d="M7480 8580 c0 -5 5 -10 10 -10 6 0 10 5 10 10 0 6 -4 10 -10 10 -5 0
-10 -4 -10 -10z"/>
<path d="M7806 8575 c4 -8 8 -15 10 -15 2 0 4 7 4 15 0 8 -4 15 -10 15 -5 0
-7 -7 -4 -15z"/>
<path d="M7625 8570 c-3 -5 -1 -10 4 -10 6 0 11 5 11 10 0 6 -2 10 -4 10 -3 0
-8 -4 -11 -10z"/>
<path d="M4643 8552 c-8 -5 -9 -13 -3 -22 11 -17 23 -8 18 14 -2 9 -8 12 -15
8z"/>
<path d="M8406 8542 c-3 -5 1 -9 9 -9 8 0 12 4 9 9 -3 4 -7 8 -9 8 -2 0 -6 -4
-9 -8z"/>
<path d="M7364 8515 c-10 -8 -14 -15 -8 -15 5 0 19 7 30 15 10 8 14 15 8 15
-5 0 -19 -7 -30 -15z"/>
<path d="M4472 8495 c-12 -14 -18 -25 -12 -25 5 0 13 6 17 13 4 8 17 19 28 25
15 9 16 11 4 12 -8 0 -25 -11 -37 -25z"/>
<path d="M8405 8510 c-10 -17 12 -37 25 -24 8 8 6 15 -4 23 -10 9 -16 9 -21 1z"/>
<path d="M4530 8501 c0 -5 7 -11 14 -14 10 -4 13 -1 9 9 -6 15 -23 19 -23 5z"/>
<path d="M8080 8500 c0 -5 5 -10 11 -10 5 0 7 5 4 10 -3 6 -8 10 -11 10 -2 0
-4 -4 -4 -10z"/>
<path d="M8453 8495 c0 -8 4 -12 9 -9 4 3 12 -5 17 -18 6 -14 10 -17 10 -7 1
9 -7 23 -17 32 -15 14 -19 15 -19 2z"/>
<path d="M6700 8466 c0 -2 7 -7 16 -10 8 -3 12 -2 9 4 -6 10 -25 14 -25 6z"/>
<path d="M4424 8435 c-10 -8 -14 -14 -9 -15 15 0 40 18 34 24 -3 3 -14 -1 -25
-9z"/>
<path d="M4541 8434 c0 -11 3 -14 6 -6 3 7 2 16 -1 19 -3 4 -6 -2 -5 -13z"/>
<path d="M8489 8428 c-6 -13 -8 -20 -4 -16 5 4 14 3 21 -3 7 -6 19 -7 27 -2
13 7 13 10 -1 23 -14 13 -15 12 -9 -4 5 -12 3 -16 -5 -13 -7 2 -12 12 -12 21
2 22 -3 20 -17 -6z"/>
<path d="M5150 8429 c0 -5 5 -7 10 -4 6 3 10 8 10 11 0 2 -4 4 -10 4 -5 0 -10
-5 -10 -11z"/>
<path d="M5191 8424 c0 -11 3 -14 6 -6 3 7 2 16 -1 19 -3 4 -6 -2 -5 -13z"/>
<path d="M7636 8403 c-6 -14 -5 -15 5 -6 7 7 10 15 7 18 -3 3 -9 -2 -12 -12z"/>
<path d="M7034 8394 c3 -9 6 -18 6 -20 0 -2 9 1 20 8 27 17 25 28 -6 28 -20 0
-25 -4 -20 -16z"/>
<path d="M7546 8375 c18 -28 24 -31 24 -12 0 7 -9 18 -20 25 -20 12 -21 12 -4
-13z"/>
<path d="M8552 8381 c-10 -6 -9 -11 2 -21 9 -7 13 -16 10 -21 -3 -5 0 -9 6 -9
6 0 8 -4 5 -10 -4 -6 1 -7 11 -3 11 4 13 8 6 11 -7 2 -10 8 -6 13 3 5 0 9 -6
9 -7 0 -10 7 -7 15 7 18 -4 26 -21 16z"/>
<path d="M10025 8379 c-81 -12 -224 -85 -301 -154 -97 -86 -121 -160 -88 -272
6 -21 3 -23 -29 -23 -35 0 -67 -27 -96 -78 -8 -15 -14 -15 -42 -5 -32 12 -48
6 -49 -18 0 -23 40 -51 81 -56 42 -5 47 -3 82 36 20 23 37 46 37 51 0 19 39
10 66 -15 44 -41 109 -55 185 -41 93 18 131 40 127 74 -2 22 -9 28 -34 30 -18
2 -49 -4 -69 -12 -48 -20 -51 -20 -75 4 -30 30 -24 56 26 110 84 90 258 177
375 187 53 5 68 2 82 -11 26 -27 21 -45 -28 -89 -51 -46 -54 -59 -24 -81 28
-19 62 -6 120 48 40 38 41 40 37 95 -8 113 -100 199 -235 220 -40 6 -75 10
-80 10 -4 -1 -35 -5 -68 -10z"/>
<path d="M7591 8375 c0 -5 3 -16 8 -24 7 -11 12 -9 22 10 11 21 11 23 -3 11
-13 -10 -17 -10 -21 0 -3 7 -6 9 -6 3z"/>
<path d="M4520 8359 c0 -5 5 -7 10 -4 6 3 10 8 10 11 0 2 -4 4 -10 4 -5 0 -10
-5 -10 -11z"/>
<path d="M4340 8349 c0 -5 5 -7 10 -4 6 3 10 8 10 11 0 2 -4 4 -10 4 -5 0 -10
-5 -10 -11z"/>
<path d="M5370 8345 c7 -8 17 -15 22 -15 5 0 3 7 -6 15 -8 8 -18 15 -22 15 -3
0 -1 -7 6 -15z"/>
<path d="M2496 8335 c-9 -9 -21 -35 -27 -58 -6 -23 -15 -52 -20 -65 -17 -43
-11 -160 11 -201 31 -62 110 -125 179 -145 55 -15 65 -15 119 -2 78 21 128 42
182 78 59 40 100 42 117 6 11 -22 10 -32 -7 -72 -19 -46 -38 -60 -115 -83 -36
-10 -45 -45 -19 -74 23 -26 95 -25 151 2 59 29 122 89 144 139 24 53 25 149 3
196 -24 50 -115 129 -170 148 -97 33 -157 15 -269 -80 -88 -75 -117 -89 -152
-72 -63 31 -77 82 -58 212 7 52 6 61 -10 72 -24 18 -40 18 -59 -1z"/>
<path d="M4366 8335 c-11 -8 -15 -15 -9 -15 7 0 15 5 18 10 4 6 11 7 17 4 7
-4 8 -2 4 4 -9 14 -7 15 -30 -3z"/>
<path d="M7387 8323 c-15 -14 -6 -23 12 -13 25 13 44 13 36 0 -3 -6 4 -10 16
-10 22 0 22 0 3 15 -20 15 -56 20 -67 8z"/>
<path d="M8013 8309 c-6 -6 -9 -17 -7 -24 3 -7 -7 -20 -22 -30 -15 -9 -22 -20
-17 -24 17 -10 24 -59 10 -64 -7 -4 -6 -6 4 -6 19 -1 30 -22 24 -48 -2 -13 3
-19 17 -20 20 -2 20 -1 2 13 -17 13 -16 13 11 2 17 -6 35 -16 40 -21 7 -7 6
-8 -2 -3 -7 4 -9 -1 -6 -14 5 -19 7 -19 18 -4 11 15 14 15 41 -2 55 -34 89
-67 90 -85 1 -10 -3 -16 -8 -13 -4 3 -6 9 -3 13 2 5 -5 17 -18 27 l-22 19 20
-24 20 -24 -20 6 c-20 7 -20 7 -1 -8 16 -12 17 -18 7 -28 -6 -6 -17 -12 -24
-12 -12 0 -16 2 -57 36 -21 17 -22 19 -3 10 12 -6 30 -11 40 -10 23 0 -20 18
-57 23 -14 2 -37 9 -53 16 -23 12 -33 11 -63 -3 -19 -10 -40 -14 -46 -11 -6 4
-8 2 -5 -3 4 -6 -1 -17 -10 -24 -15 -12 -16 -11 -11 9 4 12 2 20 -3 16 -5 -3
-9 -14 -9 -25 0 -10 -5 -19 -10 -19 -7 0 -7 -7 0 -20 6 -12 9 -29 5 -39 -8
-25 23 -80 52 -94 20 -9 21 -12 8 -19 -8 -5 -15 -13 -15 -19 0 -5 12 -2 26 8
15 9 43 18 63 19 20 1 53 5 73 8 31 6 39 4 47 -13 8 -13 8 -22 1 -26 -6 -4 -9
-1 -8 6 2 6 -2 13 -9 16 -8 3 -9 -4 -4 -24 4 -15 13 -28 20 -28 15 0 32 -26
24 -38 -3 -4 -11 0 -19 10 -13 17 -14 17 -7 -1 5 -15 3 -18 -10 -13 -9 3 -17
3 -17 -2 0 -15 -92 -33 -104 -21 -8 8 -6 9 9 5 16 -5 17 -5 5 3 -8 6 -17 9
-22 6 -4 -2 -12 4 -17 15 -13 23 -70 24 -82 1 -24 -46 -38 -83 -34 -91 3 -4 3
-20 -1 -34 -5 -20 -9 -23 -15 -13 -5 7 -9 10 -9 5 0 -4 -11 0 -25 9 -14 9 -22
20 -19 26 3 5 12 4 20 -3 8 -7 14 -7 14 -1 0 5 -7 15 -15 22 -10 9 -15 9 -15
1 0 -6 -4 -11 -9 -11 -5 0 -8 18 -7 40 2 22 -2 43 -8 47 -6 3 -8 3 -4 -2 4 -4
3 -14 -3 -21 -6 -8 -8 -31 -4 -59 7 -42 11 -48 56 -70 70 -36 79 -34 68 15 -7
30 -5 50 8 82 22 57 27 62 54 47 44 -23 52 -37 35 -55 -28 -27 -39 -56 -39
-104 0 -80 53 -134 130 -132 54 0 85 20 113 70 l22 39 36 -13 c21 -7 44 -13
53 -14 45 -1 24 -72 -40 -134 l-39 -38 -88 4 c-76 3 -99 8 -159 37 -38 19 -83
34 -100 34 -65 0 -92 -8 -102 -30 -9 -18 -8 -23 2 -23 8 0 17 5 20 10 3 6 15
10 26 10 10 0 19 5 19 10 0 19 37 10 110 -26 72 -36 74 -37 208 -39 74 -1 127
2 116 6 -18 6 -18 7 -2 14 10 4 15 11 13 16 -3 5 6 11 20 15 20 5 25 11 22 25
-3 11 -1 19 4 19 5 0 9 8 9 18 0 10 5 23 10 28 17 17 0 44 -44 66 -22 11 -44
26 -48 32 -5 8 -8 8 -8 0 0 -6 -6 -11 -14 -11 -9 0 -1 18 22 49 32 42 41 48
72 48 26 0 31 -3 20 -10 -10 -6 -11 -10 -2 -10 19 0 27 4 24 13 -1 4 7 7 18 7
15 0 20 -7 20 -27 0 -21 3 -24 9 -14 5 8 7 20 5 26 -3 7 2 15 10 18 11 4 13 0
10 -21 -3 -15 -8 -34 -11 -42 -4 -8 -7 -23 -8 -32 -1 -9 -10 -33 -19 -53 -35
-74 -25 -168 21 -193 14 -9 14 -10 -5 -16 -12 -4 -22 -12 -22 -19 0 -8 3 -8
12 1 13 13 67 16 118 6 22 -5 28 -9 18 -15 -10 -7 -9 -9 3 -9 9 0 20 7 23 16
8 22 8 22 -11 19 -10 -1 -12 0 -5 2 6 3 12 9 12 14 0 6 4 8 9 5 5 -3 12 2 16
12 6 14 9 12 19 -12 10 -25 13 -27 24 -13 10 12 10 17 1 23 -8 4 -9 3 -5 -4 4
-7 3 -12 -2 -12 -26 0 -30 88 -4 108 13 10 14 12 1 12 -12 0 -49 57 -49 75 0
14 20 2 21 -12 1 -10 6 -3 12 15 7 23 7 36 0 43 -7 7 -9 3 -6 -15 4 -21 2 -24
-15 -19 -21 5 -46 48 -37 63 3 5 1 11 -5 15 -5 3 -10 26 -10 49 0 36 5 47 26
61 14 9 40 30 56 45 26 25 33 27 54 18 13 -6 21 -14 19 -19 -3 -4 10 -13 29
-19 27 -8 33 -15 29 -28 -6 -14 -4 -15 8 -5 11 9 18 8 32 -2 17 -12 17 -14 -3
-28 -18 -12 -19 -15 -5 -21 9 -3 13 -2 10 4 -9 15 50 41 63 28 8 -8 17 -8 34
1 22 11 21 11 -7 7 -30 -5 -30 -5 -5 7 33 16 77 61 73 74 -2 6 3 13 12 17 9 3
13 2 10 -4 -3 -6 -1 -10 4 -10 14 0 14 17 1 25 -6 4 -8 11 -5 16 3 5 -1 6 -9
3 -9 -3 -16 -1 -16 4 0 6 8 13 18 15 15 4 15 5 0 6 -14 1 -35 52 -30 73 1 4
-7 12 -18 18 -11 6 -17 16 -14 22 5 7 2 8 -6 3 -9 -6 -12 -4 -8 7 4 8 1 15 -6
15 -6 0 -12 -8 -12 -18 0 -10 4 -15 8 -13 4 3 8 -2 8 -11 0 -9 4 -14 8 -11 4
2 14 1 22 -5 13 -7 13 -9 0 -9 -13 0 -13 -1 0 -10 8 -5 10 -10 4 -10 -5 0 -20
9 -32 20 -13 13 -35 20 -59 20 -30 0 -35 -3 -23 -11 13 -9 13 -10 0 -6 -8 2
-32 -2 -52 -9 -21 -7 -38 -11 -38 -7 0 3 -7 0 -15 -7 -12 -10 -15 -9 -17 6 0
11 0 27 0 37 1 10 -3 15 -8 12 -6 -4 -10 5 -10 19 0 14 5 26 11 26 5 0 7 5 3
11 -5 8 -8 8 -14 0 -5 -9 -10 -8 -20 4 -7 8 -9 15 -5 15 4 0 -3 9 -16 20 -23
19 -18 25 18 21 6 -1 14 3 18 9 3 5 12 10 18 10 7 0 6 -4 -3 -10 -9 -6 -10
-10 -3 -10 6 0 20 -3 30 -6 15 -5 15 -4 3 5 -13 9 -13 11 3 11 9 0 17 4 17 9
0 5 13 14 29 21 32 13 51 52 51 106 0 66 -40 109 -105 114 -33 3 -79 -12 -90
-30 -3 -5 -12 -7 -18 -3 -7 4 -6 0 2 -10 11 -14 11 -18 -3 -23 -9 -3 -13 -10
-10 -15 3 -5 0 -9 -6 -9 -6 0 -9 -4 -5 -9 3 -6 -3 -15 -14 -20 -11 -6 -21 -21
-23 -33 -2 -16 -9 -22 -22 -20 -13 3 -17 -1 -13 -12 9 -23 -13 -34 -78 -38
-33 -3 -74 -10 -92 -16 -27 -9 -31 -8 -26 6 4 9 2 13 -3 9 -6 -3 -18 10 -26
29 -15 32 -15 35 -1 29 13 -4 14 -3 3 10 -7 8 -17 12 -23 8 -6 -4 -7 -1 -3 6
5 7 0 21 -9 31 -9 10 -14 24 -10 30 4 7 1 16 -6 21 -10 6 -11 9 -1 9 6 0 12 4
12 10 0 5 -7 6 -17 3 -10 -4 -14 -2 -9 5 3 6 2 13 -4 17 -5 3 -10 11 -10 16 0
6 5 7 10 4 6 -3 10 -1 10 5 0 7 -7 10 -14 7 -8 -3 -29 1 -46 9 -32 16 -82 14
-117 -5 -30 -16 -42 -13 -19 4 11 8 15 15 10 15 -6 0 -15 -5 -21 -11z"/>
<path d="M7193 8282 c1 -14 5 -18 11 -12 7 7 6 14 -1 21 -9 9 -12 7 -10 -9z"/>
<path d="M7810 8286 c0 -9 5 -16 10 -16 6 0 10 4 10 9 0 6 -4 13 -10 16 -5 3
-10 -1 -10 -9z"/>
<path d="M8590 8269 c0 -5 5 -7 10 -4 6 3 10 8 10 11 0 2 -4 4 -10 4 -5 0 -10
-5 -10 -11z"/>
<path d="M4300 8261 c0 -6 4 -13 10 -16 6 -3 7 1 4 9 -7 18 -14 21 -14 7z"/>
<path d="M4656 8251 c-12 -5 -15 -10 -9 -14 6 -4 16 0 23 8 14 17 13 17 -14 6z"/>
<path d="M7825 8250 c-3 -5 -1 -10 4 -10 6 0 11 5 11 10 0 6 -2 10 -4 10 -3 0
-8 -4 -11 -10z"/>
<path d="M5395 8230 c-16 -7 -17 -9 -3 -9 9 -1 20 4 23 9 7 11 7 11 -20 0z"/>
<path d="M4801 8214 c0 -11 3 -14 6 -6 3 7 2 16 -1 19 -3 4 -6 -2 -5 -13z"/>
<path d="M5406 8206 c-16 -7 -25 -16 -20 -19 5 -3 21 3 34 14 29 21 26 22 -14
5z"/>
<path d="M7961 8194 c0 -11 3 -14 6 -6 3 7 2 16 -1 19 -3 4 -6 -2 -5 -13z"/>
<path d="M4200 8190 c0 -5 5 -10 10 -10 6 0 10 5 10 10 0 6 -4 10 -10 10 -5 0
-10 -4 -10 -10z"/>
<path d="M4685 8190 c-3 -5 -1 -10 4 -10 6 0 11 5 11 10 0 6 -2 10 -4 10 -3 0
-8 -4 -11 -10z"/>
<path d="M5032 8180 c0 -14 2 -19 5 -12 2 6 2 18 0 25 -3 6 -5 1 -5 -13z"/>
<path d="M4812 8175 c-11 -12 -10 -15 3 -15 8 0 15 7 15 15 0 18 -2 18 -18 0z"/>
<path d="M5360 8181 c0 -10 19 -25 25 -20 1 2 -3 10 -11 17 -8 7 -14 8 -14 3z"/>
<path d="M7565 8160 c-8 -13 15 -13 35 0 12 8 11 10 -7 10 -12 0 -25 -4 -28
-10z"/>
<path d="M7677 8159 c7 -7 15 -10 18 -7 3 3 -2 9 -12 12 -14 6 -15 5 -6 -5z"/>
<path d="M4487 8153 c-4 -3 -7 -13 -7 -22 1 -13 3 -13 11 2 11 19 8 33 -4 20z"/>
<path d="M7790 8150 c-8 -5 -12 -11 -10 -14 3 -2 14 2 24 10 22 15 10 19 -14
4z"/>
<path d="M4506 8125 c-9 -14 -13 -25 -8 -25 5 0 14 11 20 25 6 14 10 25 8 25
-2 0 -11 -11 -20 -25z"/>
<path d="M8485 8119 c-4 -6 -5 -12 -2 -15 2 -3 7 2 10 11 7 17 1 20 -8 4z"/>
<path d="M4820 8109 c0 -5 5 -7 10 -4 6 3 10 8 10 11 0 2 -4 4 -10 4 -5 0 -10
-5 -10 -11z"/>
<path d="M4506 8081 c-3 -4 1 -17 8 -27 13 -17 14 -17 13 9 -2 27 -11 35 -21
18z"/>
<path d="M7815 8079 c-11 -16 -1 -19 13 -3 7 8 8 14 3 14 -5 0 -13 -5 -16 -11z"/>
<path d="M4305 8070 c-16 -7 -17 -9 -3 -9 9 -1 20 4 23 9 7 11 7 11 -20 0z"/>
<path d="M8355 8070 c-16 -7 -17 -9 -3 -9 9 -1 20 4 23 9 7 11 7 11 -20 0z"/>
<path d="M5127 8048 c-8 -28 -6 -29 16 -13 14 10 15 14 3 24 -11 9 -15 7 -19
-11z"/>
<path d="M7963 8063 c9 -2 25 -2 35 0 9 3 1 5 -18 5 -19 0 -27 -2 -17 -5z"/>
<path d="M8095 8060 c-3 -6 -1 -10 5 -10 6 0 8 -4 5 -10 -3 -5 -2 -10 4 -10
17 0 20 14 5 27 -8 8 -15 9 -19 3z"/>
<path d="M4690 8050 c0 -5 5 -10 10 -10 6 0 10 5 10 10 0 6 -4 10 -10 10 -5 0
-10 -4 -10 -10z"/>
<path d="M8800 8038 l-25 -21 25 8 c20 6 23 5 13 -6 -7 -7 -13 -18 -13 -23 0
-6 5 -3 11 7 6 10 15 14 22 10 7 -4 7 -1 -1 10 -8 9 -11 21 -7 27 9 15 3 12
-25 -12z"/>
<path d="M4101 8030 c-13 -11 -19 -20 -14 -20 6 0 18 9 28 20 23 25 17 25 -14
0z"/>
<path d="M4266 8032 c-2 -4 13 -6 35 -4 21 2 39 6 39 8 0 7 -69 4 -74 -4z"/>
<path d="M4370 8030 c0 -5 5 -10 11 -10 5 0 7 5 4 10 -3 6 -8 10 -11 10 -2 0
-4 -4 -4 -10z"/>
<path d="M7965 8030 c-3 -6 1 -7 9 -4 18 7 21 14 7 14 -6 0 -13 -4 -16 -10z"/>
<path d="M8013 8033 c9 -2 23 -2 30 0 6 3 -1 5 -18 5 -16 0 -22 -2 -12 -5z"/>
<path d="M4300 8013 c-21 -5 -51 -60 -43 -80 4 -10 2 -14 -4 -10 -5 3 -10 0
-10 -8 0 -8 3 -13 6 -12 12 3 62 -36 53 -42 -6 -3 10 -6 34 -6 24 0 39 2 34 3
-14 5 -2 22 16 22 9 0 13 -5 9 -12 -4 -7 0 -5 8 5 24 29 62 21 86 -18 l13 -20
-7 20 c-4 11 -9 29 -12 40 -4 16 -3 17 6 5 7 -9 11 -11 11 -3 0 7 -7 16 -17
21 -9 6 -14 16 -10 25 3 9 2 19 -4 22 -5 4 -7 10 -4 15 3 5 -6 7 -21 4 -16 -3
-33 1 -43 10 -17 15 -73 26 -101 19z m159 -46 c8 -10 7 -14 -2 -14 -8 0 -14 6
-14 14 0 7 1 13 2 13 2 0 8 -6 14 -13z"/>
<path d="M7735 8010 c-3 -6 1 -7 9 -4 18 7 21 14 7 14 -6 0 -13 -4 -16 -10z"/>
<path d="M8132 8006 c7 -8 17 -12 22 -9 4 3 2 9 -5 14 -22 13 -31 11 -17 -5z"/>
<path d="M8738 8013 c7 -3 16 -2 19 1 4 3 -2 6 -13 5 -11 0 -14 -3 -6 -6z"/>
<path d="M8850 7993 c0 -12 5 -25 10 -28 13 -8 13 15 0 35 -8 12 -10 11 -10
-7z"/>
<path d="M4245 7989 c-4 -6 -5 -12 -2 -15 2 -3 7 2 10 11 7 17 1 20 -8 4z"/>
<path d="M8702 7980 c0 -14 2 -19 5 -12 2 6 2 18 0 25 -3 6 -5 1 -5 -13z"/>
<path d="M8820 7990 c1 -8 7 -26 15 -40 l15 -25 -6 30 c-7 33 -24 58 -24 35z"/>
<path d="M4055 7980 c-7 -11 2 -30 13 -30 4 0 8 9 8 20 0 21 -11 26 -21 10z"/>
<path d="M4905 7960 c-3 -5 -1 -10 4 -10 6 0 11 5 11 10 0 6 -2 10 -4 10 -3 0
-8 -4 -11 -10z"/>
<path d="M4933 7945 l-22 -23 22 2 c15 1 23 8 23 23 1 13 1 23 0 22 0 0 -11
-11 -23 -24z"/>
<path d="M5121 7954 c0 -11 3 -14 6 -6 3 7 2 16 -1 19 -3 4 -6 -2 -5 -13z"/>
<path d="M8801 7954 c0 -11 3 -14 6 -6 3 7 2 16 -1 19 -3 4 -6 -2 -5 -13z"/>
<path d="M4754 7935 c0 -14 4 -25 9 -25 10 0 9 38 -2 44 -5 3 -8 -5 -7 -19z"/>
<path d="M7660 7950 c0 -5 5 -10 11 -10 5 0 7 5 4 10 -3 6 -8 10 -11 10 -2 0
-4 -4 -4 -10z"/>
<path d="M4040 7941 c0 -5 5 -13 10 -16 6 -3 10 -2 10 4 0 5 -4 13 -10 16 -5
3 -10 2 -10 -4z"/>
<path d="M8690 7934 c0 -12 55 -64 67 -64 5 1 -2 9 -14 19 -12 10 -19 22 -15
26 4 5 2 5 -5 1 -6 -3 -16 2 -22 11 -6 10 -11 13 -11 7z"/>
<path d="M7862 7916 c7 -8 15 -12 17 -11 5 6 -10 25 -20 25 -5 0 -4 -6 3 -14z"/>
<path d="M4971 7904 c0 -11 3 -14 6 -6 3 7 2 16 -1 19 -3 4 -6 -2 -5 -13z"/>
<path d="M5003 7899 c-2 -23 3 -25 10 -4 4 8 3 16 -1 19 -4 3 -9 -4 -9 -15z"/>
<path d="M8796 7909 c3 -6 -5 -8 -18 -6 -12 2 -17 2 -10 0 7 -3 10 -9 7 -14
-8 -12 -2 -11 29 5 25 13 25 14 6 19 -11 3 -17 1 -14 -4z"/>
<path d="M5030 7900 c0 -5 7 -7 15 -4 8 4 15 8 15 10 0 2 -7 4 -15 4 -8 0 -15
-4 -15 -10z"/>
<path d="M4770 7889 c0 -5 5 -7 10 -4 6 3 10 8 10 11 0 2 -4 4 -10 4 -5 0 -10
-5 -10 -11z"/>
<path d="M7850 7881 c0 -25 6 -27 13 -6 4 8 2 17 -3 20 -6 4 -10 -3 -10 -14z"/>
<path d="M4245 7880 c-3 -6 1 -7 9 -4 18 7 21 14 7 14 -6 0 -13 -4 -16 -10z"/>
<path d="M8700 7876 c0 -2 7 -7 16 -10 8 -3 12 -2 9 4 -6 10 -25 14 -25 6z"/>
<path d="M4254 7854 c-18 -14 -18 -15 4 -4 12 6 22 13 22 15 0 8 -5 6 -26 -11z"/>
<path d="M4404 7842 c3 -5 0 -13 -6 -15 -8 -3 -6 -6 5 -6 19 -1 23 14 5 25 -6
4 -8 3 -4 -4z"/>
<path d="M4764 7803 c1 -25 5 -38 10 -33 5 6 5 22 -1 42 l-10 33 1 -42z"/>
<path d="M7771 7824 c0 -11 3 -14 6 -6 3 7 2 16 -1 19 -3 4 -6 -2 -5 -13z"/>
<path d="M7830 7809 c0 -5 4 -8 9 -4 5 3 12 -5 14 -17 4 -20 4 -19 6 5 1 18
-4 27 -14 27 -8 0 -15 -5 -15 -11z"/>
<path d="M7880 7811 c0 -5 5 -13 10 -16 6 -3 10 -2 10 4 0 5 -4 13 -10 16 -5
3 -10 2 -10 -4z"/>
<path d="M4460 7790 c0 -11 2 -20 4 -20 2 0 6 9 9 20 3 11 1 20 -4 20 -5 0 -9
-9 -9 -20z"/>
<path d="M4960 7795 c0 -8 4 -15 10 -15 5 0 7 7 4 15 -4 8 -8 15 -10 15 -2 0
-4 -7 -4 -15z"/>
<path d="M7800 7796 c0 -8 5 -16 11 -18 5 -2 12 -16 13 -31 2 -15 6 -30 9 -33
7 -7 3 30 -8 69 -7 28 -25 37 -25 13z"/>
<path d="M4420 7793 c1 -5 8 -19 16 -33 8 -14 13 -17 10 -7 -3 10 -6 25 -6 33
0 8 -4 14 -10 14 -5 0 -10 -3 -10 -7z"/>
<path d="M7974 7765 c-3 -8 -4 -20 -1 -27 4 -8 8 -5 12 9 4 13 12 20 18 16 6
-3 7 -1 3 5 -10 16 -26 15 -32 -3z"/>
<path d="M2255 7733 c-4 -15 -9 -46 -12 -67 -2 -22 -13 -65 -23 -95 -44 -131
-38 -150 64 -199 35 -17 83 -44 106 -61 38 -28 116 -52 217 -67 135 -20 168
-26 186 -35 32 -18 148 -15 184 4 60 32 76 74 80 216 4 137 -5 173 -45 179
-28 4 -37 -19 -46 -123 -4 -44 -9 -81 -10 -83 -5 -5 -185 43 -338 89 l-68 21
0 82 c0 85 -15 126 -46 126 -22 0 -44 -62 -44 -123 0 -32 -5 -58 -12 -64 -7
-5 -40 -7 -72 -5 l-59 4 5 87 c7 108 0 135 -34 139 -21 3 -27 -2 -33 -25z"/>
<path d="M4119 7739 c-23 -19 -23 -20 -2 -10 12 6 25 16 28 21 10 16 -1 12
-26 -11z"/>
<path d="M8102 7740 c0 -14 2 -19 5 -12 2 6 2 18 0 25 -3 6 -5 1 -5 -13z"/>
<path d="M3956 7735 c-3 -9 0 -15 9 -15 9 0 12 6 9 15 -4 8 -7 15 -9 15 -2 0
-5 -7 -9 -15z"/>
<path d="M4461 7735 c0 -12 -6 -26 -13 -33 -6 -6 -9 -14 -6 -18 10 -9 30 35
25 54 -4 13 -5 13 -6 -3z"/>
<path d="M4975 7740 c-19 -8 -19 -9 2 -9 12 -1 25 4 28 9 7 12 -2 12 -30 0z"/>
<path d="M7795 7740 c-3 -5 -1 -10 4 -10 6 0 11 5 11 10 0 6 -2 10 -4 10 -3 0
-8 -4 -11 -10z"/>
<path d="M7865 7729 c-11 -17 1 -21 15 -4 8 9 8 15 2 15 -6 0 -14 -5 -17 -11z"/>
<path d="M8640 7715 c-7 -8 -9 -15 -4 -16 5 0 -1 -4 -13 -9 -13 -5 -22 -17
-22 -27 1 -17 2 -17 6 0 3 11 11 16 19 13 8 -3 17 1 21 10 3 9 12 13 22 10 13
-5 13 -4 -1 7 -10 8 -15 17 -11 20 3 4 4 7 1 7 -3 0 -11 -7 -18 -15z"/>
<path d="M7805 7700 c-4 -12 -4 -24 -1 -27 3 -4 6 0 6 8 1 10 5 8 15 -5 19
-25 19 -16 1 19 -14 26 -14 26 -21 5z"/>
<path d="M8973 7708 c-11 -19 -13 -39 -2 -32 5 3 7 9 4 14 -10 16 24 19 37 3
11 -15 11 -16 -4 -10 -22 8 -23 3 -2 -17 20 -21 41 -21 24 -1 -7 8 -9 15 -5
15 5 0 0 9 -10 20 -21 23 -31 25 -42 8z"/>
<path d="M10140 7697 c-3 -2 -39 -7 -80 -11 -170 -14 -240 -33 -240 -64 0 -21
38 -42 75 -42 13 0 33 -9 43 -20 22 -24 46 -121 37 -150 -4 -11 -34 -38 -68
-60 -69 -43 -97 -81 -97 -133 0 -45 13 -55 85 -61 75 -7 130 7 265 71 58 27
146 67 195 88 123 54 226 116 252 154 33 48 26 112 -17 156 -53 55 -103 67
-285 72 -88 3 -162 3 -165 0z m316 -118 c-10 -6 -57 -24 -105 -39 -47 -16
-126 -42 -174 -60 -49 -17 -95 -29 -102 -26 -16 6 -31 94 -19 106 5 4 88 12
184 18 257 13 238 13 216 1z"/>
<path d="M6890 7666 c-32 -35 -33 -101 -1 -127 29 -23 33 -23 60 -1 34 26 43
84 20 121 -23 37 -48 39 -79 7z"/>
<path d="M7096 7668 c-19 -27 -21 -77 -4 -113 9 -19 19 -25 43 -25 27 0 35 6
49 34 21 44 20 54 -4 94 -24 39 -61 43 -84 10z"/>
<path d="M4833 7665 c-13 -5 -25 -16 -28 -24 -5 -11 -3 -12 10 -1 9 7 33 16
53 20 32 5 34 7 12 11 -14 2 -35 0 -47 -6z"/>
<path d="M4481 7654 c0 -11 3 -14 6 -6 3 7 2 16 -1 19 -3 4 -6 -2 -5 -13z"/>
<path d="M7851 7644 c0 -11 3 -14 6 -6 3 7 2 16 -1 19 -3 4 -6 -2 -5 -13z"/>
<path d="M8982 7644 c9 -9 21 -15 27 -13 6 2 -2 10 -17 17 -25 11 -25 11 -10
-4z"/>
<path d="M7790 7640 c0 -5 5 -10 11 -10 5 0 7 5 4 10 -3 6 -8 10 -11 10 -2 0
-4 -4 -4 -10z"/>
<path d="M8568 7643 c7 -3 16 -2 19 1 4 3 -2 6 -13 5 -11 0 -14 -3 -6 -6z"/>
<path d="M8600 7625 c-7 -8 -8 -15 -2 -15 5 0 15 7 22 15 7 8 8 15 2 15 -5 0
-15 -7 -22 -15z"/>
<path d="M8838 7613 c7 -3 16 -2 19 1 4 3 -2 6 -13 5 -11 0 -14 -3 -6 -6z"/>
<path d="M9048 7580 c9 -16 19 -27 23 -25 3 3 4 -7 1 -22 -3 -18 -1 -24 7 -19
7 4 15 -3 21 -19 12 -33 12 -35 0 -35 -5 0 -10 6 -10 14 0 8 -5 18 -11 22 -8
4 -9 0 -4 -15 4 -12 2 -21 -4 -21 -6 0 -12 19 -12 43 l-1 42 -8 -39 c-5 -28
-4 -44 6 -53 7 -7 15 -9 18 -4 3 5 15 7 25 4 17 -4 35 -48 34 -80 0 -7 4 -13
9 -13 6 0 8 -9 5 -20 -3 -10 0 -21 6 -23 6 -2 11 -20 11 -40 1 -20 4 -37 8
-37 3 0 9 -8 12 -17 3 -10 2 1 -1 25 -9 72 -96 327 -111 324 -7 -1 -12 5 -10
14 2 9 -4 18 -13 19 -16 3 -16 1 -1 -25z"/>
<path d="M8305 7580 c3 -5 8 -10 11 -10 2 0 4 5 4 10 0 6 -5 10 -11 10 -5 0
-7 -4 -4 -10z"/>
<path d="M4495 7550 c3 -5 10 -10 16 -10 5 0 9 5 9 10 0 6 -7 10 -16 10 -8 0
-12 -4 -9 -10z"/>
<path d="M4760 7551 c0 -6 5 -13 10 -16 6 -3 10 1 10 9 0 9 -4 16 -10 16 -5 0
-10 -4 -10 -9z"/>
<path d="M8270 7556 c0 -2 9 -6 20 -9 11 -3 20 -1 20 4 0 5 -9 9 -20 9 -11 0
-20 -2 -20 -4z"/>
<path d="M4280 7535 c0 -8 38 -11 55 -5 15 6 10 8 -17 8 -21 0 -38 -1 -38 -3z"/>
<path d="M4747 7489 c4 -13 8 -18 11 -10 2 7 -1 18 -6 23 -8 8 -9 4 -5 -13z"/>
<path d="M8340 7500 c0 -5 5 -10 10 -10 6 0 10 5 10 10 0 6 -4 10 -10 10 -5 0
-10 -4 -10 -10z"/>
<path d="M8575 7500 c3 -5 8 -10 11 -10 2 0 4 5 4 10 0 6 -5 10 -11 10 -5 0
-7 -4 -4 -10z"/>
<path d="M6955 7473 c-36 -19 -64 -52 -65 -75 0 -28 35 -22 68 12 17 17 41 30
54 30 24 0 65 -23 84 -48 6 -8 19 -12 30 -10 59 11 -35 108 -104 108 -20 -1
-50 -8 -67 -17z"/>
<path d="M4300 7410 c8 -5 20 -10 25 -10 6 0 3 5 -5 10 -8 5 -19 10 -25 10 -5
0 -3 -5 5 -10z"/>
<path d="M4355 7410 c27 -12 43 -12 25 0 -8 5 -22 9 -30 9 -10 0 -8 -3 5 -9z"/>
<path d="M5812 7389 c-48 -18 -51 -107 -6 -150 52 -49 109 12 85 91 -14 46
-47 71 -79 59z"/>
<path d="M8360 7335 c0 -27 3 -45 7 -41 7 7 5 77 -3 85 -2 2 -4 -17 -4 -44z"/>
<path d="M4508 7353 c7 -3 16 -2 19 1 4 3 -2 6 -13 5 -11 0 -14 -3 -6 -6z"/>
<path d="M5590 7340 c-15 -15 -20 -33 -20 -67 1 -61 28 -98 65 -89 56 14 72
126 22 161 -29 20 -43 19 -67 -5z"/>
<path d="M6761 7326 c-12 -14 -9 -30 26 -191 31 -143 94 -255 142 -255 16 0
18 -9 17 -87 0 -49 3 -105 7 -125 5 -26 4 -38 -3 -38 -6 0 -8 5 -5 11 4 5 -14
-3 -41 -19 -26 -17 -53 -43 -60 -58 l-12 -29 -7 32 c-4 18 -14 38 -21 44 -8 6
-14 22 -14 35 0 17 7 24 28 27 l27 4 -27 2 c-17 0 -28 7 -28 16 0 8 6 13 13
11 6 -1 9 -1 5 1 -4 3 -10 4 -14 3 -7 -2 -54 52 -54 63 0 5 5 17 10 27 17 31
-7 67 -54 83 -33 11 -42 19 -47 46 -4 17 -17 40 -29 51 -27 24 -17 20 -65 26
-22 4 -46 11 -53 17 -16 13 -82 17 -103 6 -10 -5 -30 -1 -55 12 -45 23 -116
21 -141 -4 -13 -13 -19 -13 -42 -1 -40 21 -70 17 -103 -16 -23 -23 -35 -29
-55 -24 -22 6 -24 10 -19 43 14 87 26 207 21 218 -11 29 -36 8 -90 -72 -31
-47 -60 -85 -64 -85 -4 0 -16 -8 -27 -19 -58 -53 -159 -51 -241 5 -52 36 -73
38 -73 5 0 -20 68 -116 149 -211 44 -51 55 -71 53 -92 -3 -21 -9 -28 -26 -28
-33 0 -46 -19 -46 -70 0 -36 -5 -52 -24 -69 -16 -15 -26 -38 -30 -69 -3 -26
-8 -63 -11 -82 -5 -26 0 -47 17 -80 20 -39 21 -49 11 -70 -18 -35 -16 -70 6
-112 11 -19 17 -39 14 -42 -4 -3 0 -6 7 -6 7 0 10 -3 7 -7 -4 -3 -2 -12 4 -20
9 -10 5 -13 -22 -13 -45 0 -97 -33 -113 -70 -28 -68 -1 -176 61 -242 16 -17
22 -31 17 -40 -6 -10 -5 -11 7 -1 9 8 27 9 49 4 19 -4 50 -6 68 -5 29 1 32 -1
32 -28 0 -42 24 -83 64 -107 19 -12 54 -44 77 -72 24 -28 49 -56 55 -63 6 -6
19 -24 29 -39 25 -39 65 -57 140 -64 36 -3 65 -9 65 -12 0 -3 -10 -27 -22 -54
-17 -35 -28 -46 -41 -43 -14 3 -16 1 -7 -9 8 -9 2 -32 -23 -86 -77 -167 -91
-228 -91 -389 0 -122 3 -142 27 -206 15 -40 39 -93 53 -118 30 -53 146 -176
167 -176 7 0 29 12 48 26 90 67 212 100 308 83 67 -13 86 -8 136 34 l39 34
-42 27 c-56 35 -145 125 -176 179 -15 24 -38 77 -52 118 -22 63 -25 86 -22
157 4 79 6 84 40 120 40 42 56 71 92 166 31 82 73 144 123 181 21 16 40 32 43
35 8 9 76 50 84 50 14 0 -49 -103 -71 -117 -34 -22 -28 -33 17 -33 51 0 137
38 188 84 37 34 40 35 38 14 -2 -13 -13 -45 -25 -72 -11 -27 -19 -51 -16 -54
11 -12 61 27 109 84 69 84 86 107 86 117 0 4 5 5 10 2 13 -8 3 -114 -16 -169
-17 -47 -17 -56 -3 -56 22 0 72 44 99 87 l28 44 7 -33 c12 -56 41 -101 105
-163 94 -92 120 -166 100 -290 -20 -130 -78 -249 -168 -346 -32 -35 -32 -36
-17 -72 8 -20 15 -40 15 -44 0 -5 -27 -23 -60 -41 -33 -19 -60 -35 -60 -37 0
-2 36 -28 79 -59 44 -30 86 -65 94 -77 14 -20 13 -23 -19 -51 l-34 -30 -61 51
c-52 44 -67 51 -104 51 -51 0 -89 -26 -105 -74 -15 -45 -4 -81 33 -112 29 -25
37 -26 112 -22 l80 4 2 -44 c1 -24 8 -50 14 -58 7 -8 10 -16 8 -17 -2 -2 -40
-9 -84 -16 -95 -16 -110 -22 -135 -64 -57 -94 10 -208 114 -194 42 6 54 16
163 145 42 49 44 50 80 41 21 -5 57 -9 80 -9 l42 0 -10 -32 c-8 -32 -39 -98
-49 -108 -18 -18 -40 -77 -40 -107 0 -41 49 -97 94 -109 42 -10 94 19 112 63
15 34 14 42 -10 130 -14 51 -26 113 -26 138 0 40 3 46 33 61 17 9 44 27 58 41
31 29 41 26 121 -38 57 -45 79 -53 122 -45 55 10 103 80 90 131 -3 12 -19 35
-35 51 -31 30 -52 33 -156 19 l-63 -8 0 37 c0 40 -22 100 -46 127 -13 15 -11
17 30 28 25 6 59 11 76 11 43 0 100 56 100 98 0 24 -8 35 -35 52 -19 12 -35
25 -35 28 -1 17 -52 43 -71 37 -11 -4 -48 -41 -81 -83 -33 -43 -68 -82 -77
-88 -9 -6 -60 -13 -113 -16 l-98 -4 -14 41 c-20 55 -28 85 -23 85 2 0 24 -7
47 -15 56 -20 153 -19 196 1 47 22 111 97 116 136 4 21 -3 47 -18 77 -13 25
-27 64 -30 87 -6 48 10 151 31 191 8 15 15 33 15 38 0 6 -26 22 -58 36 -50 22
-62 33 -80 71 -24 49 -27 93 -11 153 21 74 135 159 121 90 -5 -28 16 -112 30
-121 5 -3 25 -3 45 1 35 6 35 6 29 49 -9 59 0 79 27 65 40 -20 106 -92 112
-121 9 -41 20 -35 39 25 26 77 30 173 12 231 l-15 50 60 54 c32 30 71 74 86
99 31 53 41 45 50 -41 7 -70 -10 -119 -60 -173 l-40 -44 44 6 c99 14 222 95
306 200 l31 40 7 -27 c4 -14 1 -53 -5 -85 -10 -48 -20 -65 -55 -100 -24 -22
-60 -47 -79 -54 -56 -20 -43 -30 32 -24 150 13 284 56 357 113 37 29 25 41
-13 13 -16 -11 -33 -17 -37 -13 -5 4 -5 2 -2 -4 10 -17 -78 -51 -189 -74 -113
-23 -104 -23 -104 -10 0 6 5 10 11 10 15 0 79 70 79 87 0 8 3 12 8 10 4 -3 8
5 9 16 1 12 4 49 7 83 4 43 1 66 -8 80 -8 10 -16 17 -18 14 -119 -160 -171
-205 -281 -243 -50 -17 -55 -16 -33 5 30 31 56 98 56 145 -1 61 -30 148 -50
148 -8 0 -15 -4 -15 -10 -1 -23 -50 -102 -86 -139 -22 -21 -39 -36 -39 -32 0
4 -7 1 -15 -7 -8 -9 -20 -17 -27 -19 -9 -3 -8 -17 5 -57 20 -63 21 -98 6 -192
l-12 -69 -22 30 c-29 39 -67 74 -105 96 -41 25 -55 9 -54 -62 2 -54 1 -55 -24
-52 -30 3 -40 27 -41 98 0 34 2 41 10 30 8 -12 9 -10 4 7 -7 26 15 64 62 109
18 17 33 35 33 41 0 12 -65 27 -78 19 -5 -3 -21 -7 -36 -10 -16 -3 -37 -13
-47 -22 -26 -24 -24 -2 4 29 12 14 33 39 47 56 14 17 28 31 32 31 18 0 78 67
73 80 -8 22 -76 67 -115 77 l-33 9 44 32 c24 18 55 36 69 39 14 3 30 10 36 14
6 5 45 12 88 15 l76 7 0 56 c1 53 21 114 32 95 3 -5 9 -24 13 -41 8 -38 70
-95 100 -91 13 2 22 14 27 42 13 60 45 105 104 142 29 19 56 34 59 34 3 0 5
-24 5 -52 0 -54 30 -138 49 -138 6 0 36 25 67 55 31 31 73 64 94 75 l38 19
-19 -38 c-23 -49 -36 -121 -21 -121 6 0 37 13 69 29 71 36 122 50 146 42 17
-6 16 -9 -8 -26 -36 -27 -73 -91 -81 -142 l-6 -42 119 2 c99 2 123 -1 146 -15
33 -22 51 -55 39 -71 -4 -7 -14 -31 -22 -54 -7 -23 -16 -40 -20 -38 -4 3 -10
-9 -12 -26 l-5 -30 101 6 c89 6 105 4 136 -13 19 -11 34 -27 34 -36 -1 -9 2
-13 7 -11 8 6 34 -33 27 -41 -3 -2 -18 0 -34 4 -45 12 -129 8 -147 -7 -28 -23
-19 -51 32 -107 53 -58 82 -125 73 -170 -6 -32 -93 -124 -117 -124 -8 0 -15
-4 -15 -8 0 -5 -6 -9 -12 -9 -7 -1 -40 -10 -72 -22 -72 -26 -84 -26 -63 -3 15
17 56 100 65 132 7 27 11 166 5 189 -8 29 -32 26 -84 -11 -47 -35 -64 -53 -91
-102 l-18 -31 0 42 c0 52 38 173 57 180 7 3 13 14 13 24 0 16 -5 18 -27 13
-25 -7 -27 -6 -14 9 7 10 10 17 6 17 -4 0 -3 6 3 13 14 17 26 87 15 87 -15 0
-43 -57 -37 -74 3 -9 1 -29 -5 -46 -8 -25 -8 -30 4 -28 19 4 18 -8 -11 -81
-16 -37 -19 -177 -5 -185 5 -3 14 8 20 25 16 46 64 101 110 127 52 30 56 22
48 -93 -6 -89 -31 -152 -83 -214 -14 -18 -25 -34 -22 -36 6 -6 106 19 166 43
101 39 182 124 182 190 0 46 -36 118 -82 163 -21 20 -38 46 -38 57 0 21 6 23
97 36 12 2 24 0 25 -4 2 -4 20 -10 41 -14 44 -8 49 7 18 58 -44 71 -126 100
-217 77 -34 -9 -50 -9 -58 -1 -8 8 -7 13 2 19 7 4 15 18 17 31 2 13 10 27 17
31 7 4 9 11 5 15 -4 4 0 12 7 18 19 15 31 56 16 56 -6 0 -9 -4 -6 -8 2 -4 0
-14 -6 -22 -8 -13 -9 -13 -5 0 8 26 -11 58 -45 77 -27 14 -55 17 -146 16 -111
-1 -113 -1 -106 21 17 55 28 72 80 123 31 30 54 57 50 60 -3 3 -23 7 -46 9
-33 2 -56 -2 -120 -21 -3 -1 -13 -5 -23 -10 -32 -13 -28 1 15 68 32 50 51 70
77 78 39 13 83 55 108 102 19 38 21 154 2 189 -7 13 -13 39 -13 58 -1 32 -4
35 -31 35 -16 0 -41 8 -55 17 -19 14 -22 20 -12 30 7 7 16 13 20 14 61 5 181
70 211 113 8 11 19 17 24 14 6 -3 7 -2 4 4 -11 17 45 59 110 82 33 13 70 31
81 42 19 17 21 17 25 1 3 -9 5 8 6 38 1 75 -15 94 -75 92 -25 -1 -50 -5 -55
-8 -5 -3 -9 4 -9 16 0 43 -18 60 -63 60 -23 0 -57 -4 -76 -10 -26 -7 -42 -6
-68 7 -60 28 -112 109 -96 150 3 8 19 21 36 30 l31 16 41 -47 c37 -41 48 -48
101 -56 61 -10 85 -28 77 -59 -6 -24 16 -40 70 -47 42 -6 46 -5 44 14 -1 16
-4 18 -14 11 -8 -8 -23 -7 -48 1 -37 12 -45 24 -21 33 23 9 7 44 -22 51 -15 3
-47 9 -72 14 -65 13 -75 19 -96 58 -26 47 -69 56 -122 23 -21 -13 -23 -20 -20
-74 3 -50 9 -65 35 -93 51 -56 77 -65 153 -51 36 6 74 9 85 6 15 -3 13 -5 -7
-6 -39 -1 -35 -16 3 -16 52 0 47 -31 -7 -46 -24 -8 -44 -17 -44 -22 0 -5 -10
-5 -21 -2 -15 5 -19 4 -15 -4 4 -7 0 -11 -11 -11 -11 0 -24 -5 -31 -12 -6 -6
-15 -8 -19 -4 -4 4 -1 11 7 16 8 6 11 10 5 10 -5 -1 -18 -7 -28 -14 -14 -11
-15 -15 -5 -19 8 -4 7 -6 -4 -6 -10 -1 -18 3 -18 8 0 5 -9 7 -20 4 -11 -3 -20
-9 -20 -14 0 -5 -5 -9 -11 -9 -6 0 -9 6 -6 14 3 8 -1 17 -9 20 -9 3 -12 2 -9
-5 10 -14 -2 -56 -17 -62 -10 -3 -13 35 -11 177 1 99 5 190 9 200 5 14 4 17
-4 12 -11 -6 -17 12 -13 37 1 5 -8 22 -19 38 -36 49 -102 36 -123 -23 -4 -10
-12 -18 -19 -18 -8 0 -9 -3 -3 -8 6 -4 8 -81 5 -210 -3 -112 -2 -206 1 -208 4
-2 4 -15 2 -29 l-5 -25 -30 21 c-20 15 -28 28 -25 40 3 11 1 17 -4 13 -5 -3
-9 3 -10 13 0 16 -1 16 -8 -2 -9 -21 -20 39 -25 140 -2 28 -6 58 -11 68 -4 10
-3 17 3 17 6 0 13 -6 15 -12 4 -9 6 -9 6 -1 1 6 -8 22 -19 35 -11 12 -29 35
-40 50 -11 14 -43 38 -72 52 -29 14 -46 26 -38 26 7 0 11 3 7 6 -3 3 -24 -4
-46 -17 -31 -17 -43 -20 -54 -11 -11 10 -13 -2 -9 -71 2 -45 7 -86 12 -92 4
-5 10 -23 14 -39 4 -15 14 -35 22 -43 8 -8 12 -23 10 -32 -3 -9 -2 -22 3 -29
7 -11 9 -10 14 3 4 9 3 13 -3 10 -6 -3 -10 -1 -10 4 0 37 87 -29 92 -70 2 -13
7 -30 12 -37 11 -19 6 -20 -32 -10 -18 5 -30 13 -27 18 8 13 -2 13 -27 -1 -13
-7 -18 -7 -14 -1 3 6 1 14 -5 17 -5 4 -8 14 -5 22 4 9 2 21 -2 27 -5 6 -12 26
-15 44 -9 44 -53 136 -84 172 -13 16 -22 34 -18 40 4 6 -1 7 -11 3 -13 -5 -15
-3 -9 7 5 8 4 11 -2 7 -6 -4 -18 2 -28 13 -10 11 -14 20 -10 20 4 0 0 9 -10
20 -12 13 -25 18 -38 14 -14 -4 -17 -3 -12 6 5 9 4 11 -4 6 -6 -4 -26 2 -44
12 -17 11 -56 28 -84 37 -29 10 -51 20 -49 24 2 3 -24 7 -57 8 -34 2 -63 7
-65 13 -2 6 -8 8 -12 5 -5 -3 -36 1 -69 10 -109 28 -238 16 -355 -34 -37 -17
-45 -17 -50 -5 -8 21 -24 17 -82 -21 -167 -111 -283 -101 -366 31 -42 68 -49
72 -67 50z m984 -88 c-3 -18 -8 -37 -9 -43 -3 -13 -24 -115 -37 -178 -16 -84
-13 -95 29 -114 72 -31 106 -113 82 -197 -17 -60 -8 -70 39 -47 46 24 85 73
102 130 13 43 19 41 34 -8 5 -15 4 -21 -3 -17 -6 3 -14 1 -18 -5 -4 -7 -3 -9
4 -5 15 9 25 -30 18 -70 -4 -19 -6 -35 -5 -36 5 -9 -34 -82 -56 -105 -14 -16
-31 -36 -36 -45 -8 -16 -5 -18 22 -18 83 0 178 63 198 132 8 30 9 26 10 -34 1
-66 -17 -168 -29 -168 -4 0 -7 -6 -7 -12 0 -7 -14 -37 -32 -66 -32 -54 -37
-72 -22 -72 25 0 132 109 170 174 13 22 25 42 26 44 7 9 65 -37 85 -67 54 -80
13 -241 -73 -286 l-38 -20 -49 28 c-28 15 -52 27 -54 27 -3 0 -7 -15 -11 -32
-3 -18 -10 -42 -15 -53 -4 -11 -15 -40 -24 -65 -41 -114 -70 -141 -187 -174
-46 -13 -138 -69 -159 -96 -3 -4 -18 -10 -35 -14 -16 -4 -38 -9 -49 -13 -13
-4 -16 -2 -11 7 5 9 4 11 -4 6 -7 -5 -29 7 -54 29 -60 51 -65 55 -77 55 -5 0
-10 4 -10 10 0 5 -3 9 -7 8 -5 0 -35 11 -68 26 -33 15 -69 31 -80 36 -37 15
-154 40 -189 40 -31 0 -40 6 -63 42 -24 36 -28 51 -28 117 0 42 4 99 8 127 l8
50 -58 17 c-62 17 -116 57 -128 96 -12 39 -7 129 10 161 17 33 49 57 83 62 20
3 27 -6 50 -65 30 -73 79 -137 105 -137 14 0 15 9 10 63 -6 72 12 240 27 245
6 2 8 8 5 12 -8 13 6 63 15 53 3 -4 12 -27 19 -51 16 -57 96 -142 134 -142 27
0 36 13 16 25 -6 4 -8 13 -5 21 3 8 2 14 -3 14 -8 0 -24 73 -26 115 -2 71 65
197 87 163 4 -7 5 -20 2 -30 -2 -9 0 -19 6 -23 5 -3 10 -14 10 -24 0 -16 16
-57 39 -100 14 -28 31 -24 31 8 0 16 4 32 9 35 4 3 11 19 14 35 4 16 22 45 42
65 27 28 46 37 85 42 42 6 50 10 50 28 0 11 9 64 20 116 23 109 40 191 40 196
0 2 5 4 11 4 8 0 9 -11 4 -32z m-838 -103 c42 -20 141 -19 188 1 l38 15 -51
-57 c-28 -31 -64 -81 -79 -110 -52 -99 -101 -60 -157 123 -22 70 -21 79 7 59
12 -9 36 -23 54 -31z m1203 30 c7 -8 8 -15 2 -15 -5 0 -15 7 -22 15 -7 8 -8
15 -2 15 5 0 15 -7 22 -15z m277 -27 c80 -47 92 -74 109 -268 6 -63 15 -83 57
-127 17 -18 29 -33 26 -34 -21 -3 -40 -8 -58 -14 -11 -3 -21 -3 -21 2 0 4 -15
18 -34 31 -32 22 -55 62 -35 62 18 0 -34 86 -68 110 -58 42 -69 58 -82 118 -7
31 -15 67 -18 79 -4 17 3 27 29 43 42 25 48 25 95 -2z m-2450 -75 c-8 -43 -16
-64 -27 -68 -21 -7 -62 -52 -75 -84 -6 -13 -26 -28 -48 -36 -36 -12 -38 -12
-78 28 -22 22 -48 52 -58 66 l-19 26 77 0 c68 0 83 3 119 28 23 15 59 45 79
67 21 21 38 38 39 37 1 -1 -3 -30 -9 -64z m2919 -248 c-11 -8 -24 -15 -30 -15
-5 0 -1 7 10 15 10 8 24 14 29 14 6 0 1 -6 -9 -14z m169 -125 c-3 -5 -11 -10
-16 -10 -6 0 -7 5 -4 10 3 6 11 10 16 10 6 0 7 -4 4 -10z m-30 -20 c3 -5 2
-10 -4 -10 -5 0 -13 5 -16 10 -3 6 -2 10 4 10 5 0 13 -4 16 -10z m-27 -12 c17
-17 -53 -65 -97 -66 -18 0 -36 -4 -40 -8 -3 -4 6 -4 22 -2 45 9 30 -8 -18 -19
-39 -9 -45 -8 -45 6 0 14 -2 14 -10 1 -8 -13 -10 -12 -10 3 0 9 6 17 14 17 8
0 18 4 21 10 3 6 -1 7 -12 4 -10 -3 4 6 32 20 31 16 52 21 56 15 4 -7 8 -5 12
4 3 9 16 17 29 20 13 2 25 5 29 6 3 0 10 -4 17 -11z m-573 -53 c14 -13 24 -32
24 -42 -1 -17 -2 -17 -6 0 -3 10 -13 17 -26 16 -16 -1 -18 -2 -5 -6 20 -5 33
-37 22 -54 -4 -8 -3 -9 4 -5 22 13 12 -10 -13 -34 -17 -16 -25 -19 -25 -9 -1
10 -4 9 -11 -4 -6 -9 -15 -15 -21 -11 -6 4 -5 10 3 15 10 6 10 9 2 9 -6 0 -15
-5 -19 -11 -5 -8 -8 -8 -14 0 -4 7 -16 13 -28 14 -11 0 -18 5 -15 10 3 5 -1
13 -8 18 -11 7 -12 11 -1 17 7 5 12 13 11 18 -1 5 4 24 11 42 10 26 15 30 26
21 8 -7 17 -9 21 -5 3 3 1 6 -5 6 -7 0 -12 5 -12 10 0 20 61 10 85 -15z m215
-85 c-9 -17 -14 -19 -20 -10 -6 10 -9 8 -11 -5 -4 -17 -5 -17 -18 -2 -12 15
-9 19 20 31 40 17 44 15 29 -14z m130 -160 c3 -1 -4 -6 -15 -11 -17 -8 -16 -9
6 -4 19 3 29 0 33 -11 10 -26 7 -69 -6 -86 -25 -30 -89 -64 -73 -38 3 6 -1 10
-10 10 -9 0 -13 -5 -9 -11 4 -8 0 -7 -15 1 -12 6 -18 16 -15 22 4 7 3 8 -4 4
-7 -4 -18 7 -28 25 -12 24 -13 33 -4 39 7 4 9 13 6 19 -9 14 6 14 22 1 7 -5 5
-2 -3 7 -12 14 -12 18 3 30 14 10 81 13 112 3z m-292 -32 c7 -7 12 -29 12 -50
0 -49 40 -128 82 -163 18 -15 27 -24 21 -20 -7 3 -13 2 -13 -2 0 -5 18 -9 41
-9 22 -1 46 -7 52 -14 7 -7 7 -10 1 -7 -6 3 -25 -3 -42 -14 -18 -10 -38 -19
-45 -19 -7 0 -30 -18 -50 -40 -20 -23 -37 -37 -37 -33 0 4 -6 -2 -14 -13 -14
-18 -15 -18 -26 11 -6 16 -11 52 -10 80 1 27 1 56 1 62 -1 19 -58 4 -114 -29
-27 -16 -53 -26 -58 -23 -5 3 -6 -1 -3 -9 3 -8 -5 -30 -19 -48 -13 -18 -28
-48 -33 -66 l-9 -33 -23 21 c-12 12 -19 26 -16 32 4 7 2 8 -4 4 -6 -4 -16 4
-23 16 -13 23 -22 135 -13 149 8 13 55 -22 47 -35 -3 -6 0 -6 8 2 7 6 28 12
47 12 43 0 106 35 107 59 1 3 8 20 17 36 9 17 19 53 23 80 9 61 16 75 26 49 7
-17 8 -17 8 -1 1 10 5 16 10 12 5 -3 12 -1 16 5 8 13 18 13 33 -2z m-1436
-113 c-6 -34 -12 -32 -12 6 0 16 4 28 9 25 4 -3 6 -17 3 -31z m11 -246 l16
-36 -88 -7 c-48 -3 -102 -11 -119 -16 -31 -8 -32 -8 -32 24 0 33 0 34 55 38
39 3 62 11 80 28 23 22 54 93 57 134 0 12 4 -13 8 -54 4 -41 14 -91 23 -111z
m1673 75 c-9 -8 -16 -22 -16 -30 0 -8 -4 -14 -10 -14 -5 0 -10 5 -10 10 0 18
24 50 38 50 10 0 10 -4 -2 -16z m-51 -80 c-15 -30 -20 -17 -9 24 4 14 10 20
16 14 5 -5 2 -21 -7 -38z m-615 -89 c0 -8 -7 -15 -15 -15 -26 0 -18 20 13 29
1 1 2 -6 2 -14z m-254 -178 c16 -6 41 -20 56 -30 l27 -19 -35 -34 c-20 -19
-40 -34 -45 -34 -5 0 -9 -4 -9 -9 0 -5 -7 -12 -15 -15 -12 -4 -14 -2 -7 11 7
11 5 21 -5 31 -12 13 -12 17 3 34 16 17 17 18 1 12 -22 -8 -22 3 1 24 10 10
13 14 7 11 -14 -8 -65 -6 -65 4 0 4 0 12 0 17 0 14 52 12 86 -3z m-108 -15
c-9 -11 -9 -14 -1 -9 6 4 15 3 18 -3 4 -6 16 -8 28 -4 19 6 20 5 8 -10 -7 -9
-9 -16 -4 -16 5 0 9 -8 9 -17 1 -10 5 -27 9 -38 5 -11 -14 4 -41 34 -66 72
-69 79 -39 79 22 0 24 -3 13 -16z m152 -242 c0 -11 -2 -20 -5 -20 -2 0 -9 9
-15 20 -9 16 -8 20 5 20 8 0 15 -9 15 -20z"/>
<path d="M7340 6625 c0 -5 5 -17 10 -25 5 -8 10 -10 10 -5 0 6 -5 17 -10 25
-5 8 -10 11 -10 5z"/>
<path d="M7494 6622 c4 -7 1 -12 -6 -12 -10 0 -10 -2 1 -9 17 -11 0 -22 -28
-16 -12 2 -19 0 -16 -6 4 -5 11 -7 16 -4 13 8 11 -9 -2 -22 -16 -16 -20 -106
-6 -115 28 -18 69 -8 99 24 24 26 29 39 27 73 -2 22 0 46 4 52 4 6 2 15 -4 19
-8 5 -9 3 -4 -6 6 -10 2 -12 -16 -7 -13 4 -32 7 -42 7 -10 0 -16 4 -12 9 3 5
0 13 -6 17 -8 4 -9 3 -5 -4z"/>
<path d="M7669 6558 c-1 -2 -2 -19 -4 -38 -2 -19 -7 -36 -13 -38 -9 -3 1 -83
13 -103 4 -5 30 -8 60 -7 29 2 51 6 48 11 -2 4 -10 4 -16 0 -7 -3 -4 3 7 15
12 14 19 38 20 71 1 42 -2 52 -21 62 -12 7 -21 15 -18 18 2 4 -8 6 -23 5 -14
0 -28 -6 -30 -12 -2 -7 -8 -12 -14 -12 -6 0 -8 7 -4 15 4 12 0 23 -5 13z"/>
<path d="M7765 6540 c3 -5 8 -10 11 -10 2 0 4 5 4 10 0 6 -5 10 -11 10 -5 0
-7 -4 -4 -10z"/>
<path d="M7325 6419 c-4 -6 -5 -12 -2 -15 2 -3 7 2 10 11 7 17 1 20 -8 4z"/>
<path d="M7545 6420 c-4 -6 -11 -7 -17 -4 -7 4 -8 2 -4 -5 6 -9 11 -9 22 0 14
11 18 19 10 19 -3 0 -8 -5 -11 -10z"/>
<path d="M7344 6406 c-6 -15 31 -218 47 -255 7 -18 6 -28 -6 -41 -13 -14 -13
-17 0 -17 8 0 12 4 9 9 -3 4 -2 8 1 8 11 0 36 -71 29 -82 -4 -7 -3 -8 4 -4 13
8 35 -28 24 -39 -4 -5 -2 -5 4 -2 14 8 38 -18 30 -31 -3 -6 2 -16 12 -23 15
-13 16 -12 3 4 -12 15 -10 17 23 17 20 0 53 8 74 19 20 10 43 17 50 15 7 -1 8
0 2 3 -16 8 -11 26 6 19 9 -3 12 -2 9 5 -7 11 45 65 58 61 5 -1 6 2 3 7 -4 5
-2 12 4 16 6 4 7 12 4 18 -4 7 -4 9 1 5 8 -8 39 26 55 63 22 50 40 74 52 71 7
-2 10 0 6 3 -4 4 -2 17 4 29 6 11 14 35 18 52 7 29 5 31 -18 30 -14 -1 -37
-12 -51 -25 -45 -40 -80 -54 -99 -39 -15 11 -15 11 -5 -2 10 -13 8 -18 -8 -28
-11 -7 -24 -10 -29 -7 -5 3 -11 1 -15 -5 -9 -14 -72 -12 -78 3 -4 10 -6 10 -6
0 -1 -16 -31 -17 -31 -2 0 5 -4 8 -9 5 -5 -4 -24 6 -43 21 -42 35 -49 45 -43
61 3 7 0 10 -5 7 -6 -4 -17 10 -25 29 -16 37 -50 50 -61 22z m149 -191 c51
-21 146 -19 207 5 28 11 53 20 56 20 7 0 -53 -86 -103 -147 -24 -28 -59 -61
-79 -73 l-35 -22 -25 23 c-29 27 -47 65 -75 154 -25 78 -25 93 -1 72 10 -9 34
-23 55 -32z"/>
<path d="M7422 6411 c-11 -7 -11 -9 0 -14 9 -3 15 1 15 9 0 8 -1 14 -1 14 -1
0 -7 -4 -14 -9z"/>
<path d="M7860 6286 c0 -2 7 -7 16 -10 8 -3 12 -2 9 4 -6 10 -25 14 -25 6z"/>
<path d="M7736 6013 c-6 -14 -5 -15 5 -6 7 7 10 15 7 18 -3 3 -9 -2 -12 -12z"/>
<path d="M7461 5956 c-9 -11 -9 -16 1 -22 7 -4 10 -4 6 1 -4 4 -3 14 3 22 6 7
9 13 6 13 -2 0 -10 -6 -16 -14z"/>
<path d="M7349 5893 c-13 -16 -12 -17 4 -4 9 7 17 15 17 17 0 8 -8 3 -21 -13z"/>
<path d="M8915 6640 c3 -5 11 -10 16 -10 6 0 7 5 4 10 -3 6 -11 10 -16 10 -6
0 -7 -4 -4 -10z"/>
<path d="M8848 6613 c7 -3 16 -2 19 1 4 3 -2 6 -13 5 -11 0 -14 -3 -6 -6z"/>
<path d="M8370 6600 c8 -5 20 -10 25 -10 6 0 3 5 -5 10 -8 5 -19 10 -25 10 -5
0 -3 -5 5 -10z"/>
<path d="M8290 6590 c0 -5 5 -10 11 -10 5 0 7 5 4 10 -3 6 -8 10 -11 10 -2 0
-4 -4 -4 -10z"/>
<path d="M8289 6557 c7 -7 14 -8 21 -1 6 6 2 10 -12 11 -16 2 -18 -1 -9 -10z"/>
<path d="M8734 6319 c-3 -6 -1 -16 5 -22 9 -9 10 -7 5 7 -5 13 -4 17 4 12 7
-4 12 -2 12 3 0 14 -17 14 -26 0z"/>
<path d="M8725 6239 c-4 -6 -14 -8 -24 -4 -13 5 -14 4 -3 -6 10 -11 15 -10 29
4 10 9 14 17 11 17 -4 0 -10 -5 -13 -11z"/>
<path d="M8432 6316 c7 -8 15 -12 17 -11 5 6 -10 25 -20 25 -5 0 -4 -6 3 -14z"/>
<path d="M8444 6241 c1 -30 6 -46 16 -49 12 -4 13 -2 3 9 -6 8 -13 30 -16 49
-4 28 -4 26 -3 -9z"/>
<path d="M8370 6251 c0 -6 4 -13 10 -16 6 -3 7 1 4 9 -7 18 -14 21 -14 7z"/>
<path d="M8411 6223 c-1 -28 8 -53 21 -53 7 0 7 4 0 13 -5 6 -12 23 -15 37 -4
22 -4 22 -6 3z"/>
<path d="M8503 6120 c6 -11 15 -20 19 -20 12 0 -3 28 -18 34 -11 4 -12 2 -1
-14z"/>
<path d="M8480 6111 c0 -6 4 -13 10 -16 6 -3 7 1 4 9 -7 18 -14 21 -14 7z"/>
<path d="M8186 5983 c-6 -14 -5 -15 5 -6 7 7 10 15 7 18 -3 3 -9 -2 -12 -12z"/>
<path d="M7775 5600 c-3 -5 -2 -10 4 -10 5 0 13 5 16 10 3 6 2 10 -4 10 -5 0
-13 -4 -16 -10z"/>
<path d="M4451 7314 c0 -11 3 -14 6 -6 3 7 2 16 -1 19 -3 4 -6 -2 -5 -13z"/>
<path d="M7875 7320 c-3 -5 1 -10 10 -10 9 0 13 5 10 10 -3 6 -8 10 -10 10 -2
0 -7 -4 -10 -10z"/>
<path d="M7810 7309 c0 -5 5 -7 10 -4 6 3 10 8 10 11 0 2 -4 4 -10 4 -5 0 -10
-5 -10 -11z"/>
<path d="M4456 7274 c-8 -20 -4 -25 11 -16 7 4 9 13 4 21 -6 10 -10 9 -15 -5z"/>
<path d="M8750 7268 c0 -14 15 -16 27 -3 10 11 9 13 -7 12 -11 -1 -20 -5 -20
-9z"/>
<path d="M7918 7263 c7 -3 16 -2 19 1 4 3 -2 6 -13 5 -11 0 -14 -3 -6 -6z"/>
<path d="M8001 7266 c12 -10 59 -15 59 -6 0 5 -14 10 -32 10 -17 0 -29 -2 -27
-4z"/>
<path d="M7965 7250 c3 -5 10 -10 16 -10 5 0 9 5 9 10 0 6 -7 10 -16 10 -8 0
-12 -4 -9 -10z"/>
<path d="M8600 7240 c0 -5 5 -10 11 -10 5 0 7 5 4 10 -3 6 -8 10 -11 10 -2 0
-4 -4 -4 -10z"/>
<path d="M8030 7225 c7 -9 15 -13 17 -11 7 7 -7 26 -19 26 -6 0 -6 -6 2 -15z"/>
<path d="M8425 7224 c-29 -15 -16 -14 37 3 16 5 19 3 13 -7 -5 -9 -4 -11 4 -6
13 9 5 26 -12 25 -7 0 -25 -7 -42 -15z"/>
<path d="M8782 7220 c0 -14 2 -19 5 -12 2 6 2 18 0 25 -3 6 -5 1 -5 -13z"/>
<path d="M8576 7215 c-3 -9 -5 -31 -5 -48 1 -27 3 -24 9 13 8 48 6 61 -4 35z"/>
<path d="M9155 7210 c-3 -5 -1 -10 4 -10 6 0 11 5 11 10 0 6 -2 10 -4 10 -3 0
-8 -4 -11 -10z"/>
<path d="M8305 7200 c-3 -5 -1 -10 4 -10 6 0 11 5 11 10 0 6 -2 10 -4 10 -3 0
-8 -4 -11 -10z"/>
<path d="M8440 7200 c0 -5 5 -10 10 -10 6 0 10 5 10 10 0 6 -4 10 -10 10 -5 0
-10 -4 -10 -10z"/>
<path d="M8140 7190 c-9 -6 -10 -10 -3 -10 6 0 15 5 18 10 8 12 4 12 -15 0z"/>
<path d="M9180 7175 c0 -14 4 -25 9 -25 14 0 24 -89 11 -105 -7 -8 -7 -15 -1
-19 17 -11 23 14 16 72 -9 76 -15 102 -26 102 -5 0 -9 -11 -9 -25z"/>
<path d="M8440 7160 c0 -5 5 -10 10 -10 6 0 10 5 10 10 0 6 -4 10 -10 10 -5 0
-10 -4 -10 -10z"/>
<path d="M4810 7114 c0 -9 9 -29 20 -44 l20 -29 -20 -6 c-11 -3 -24 -4 -29 -1
-5 3 -14 -1 -21 -9 -7 -8 -11 -15 -9 -16 34 -5 151 -4 160 2 13 8 4 29 -14 29
-6 0 -30 20 -54 45 -46 49 -53 53 -53 29z"/>
<path d="M4865 7100 c3 -5 8 -10 11 -10 2 0 4 5 4 10 0 6 -5 10 -11 10 -5 0
-7 -4 -4 -10z"/>
<path d="M4953 7083 c9 -2 23 -2 30 0 6 3 -1 5 -18 5 -16 0 -22 -2 -12 -5z"/>
<path d="M8541 7024 c0 -11 3 -14 6 -6 3 7 2 16 -1 19 -3 4 -6 -2 -5 -13z"/>
<path d="M4750 6979 c0 -5 5 -7 10 -4 6 3 10 8 10 11 0 2 -4 4 -10 4 -5 0 -10
-5 -10 -11z"/>
<path d="M8551 6978 c-1 -10 -7 -16 -13 -14 -7 1 -10 1 -5 -1 4 -3 7 -12 8
-21 0 -11 4 -9 10 7 5 13 8 29 5 35 -2 6 -5 3 -5 -6z"/>
<path d="M8815 6980 c3 -5 8 -10 11 -10 2 0 4 5 4 10 0 6 -5 10 -11 10 -5 0
-7 -4 -4 -10z"/>
<path d="M5170 6976 c0 -2 11 -6 25 -8 14 -3 25 -1 25 3 0 5 -11 9 -25 9 -14
0 -25 -2 -25 -4z"/>
<path d="M8965 6940 c-3 -5 -1 -10 4 -10 6 0 11 5 11 10 0 6 -2 10 -4 10 -3 0
-8 -4 -11 -10z"/>
<path d="M8531 6905 c0 -11 3 -26 8 -34 7 -11 10 -9 16 8 4 13 4 25 1 28 -3 4
-6 -2 -7 -13 -1 -15 -3 -13 -9 6 -7 21 -8 21 -9 5z"/>
<path d="M8860 6870 c8 -5 20 -10 25 -10 6 0 3 5 -5 10 -8 5 -19 10 -25 10 -5
0 -3 -5 5 -10z"/>
<path d="M8315 6800 c4 -6 11 -8 16 -5 14 9 11 15 -7 15 -8 0 -12 -5 -9 -10z"/>
<path d="M9239 6753 c-2 -10 -2 -67 2 -128 l5 -110 2 128 c2 119 -1 150 -9
110z"/>
<path d="M5021 6734 c0 -11 3 -14 6 -6 3 7 2 16 -1 19 -3 4 -6 -2 -5 -13z"/>
<path d="M6860 6659 c-25 -8 -25 -9 3 -5 22 3 27 0 23 -13 -6 -15 -5 -15 6 0
7 9 20 18 28 22 25 9 -32 6 -60 -4z"/>
<path d="M6826 6625 c-3 -8 -1 -15 4 -15 6 0 10 7 10 15 0 8 -2 15 -4 15 -2 0
-6 -7 -10 -15z"/>
<path d="M5250 6615 c0 -5 5 -17 10 -25 5 -8 10 -10 10 -5 0 6 -5 17 -10 25
-5 8 -10 11 -10 5z"/>
<path d="M5050 6601 c0 -6 4 -13 10 -16 6 -3 7 1 4 9 -7 18 -14 21 -14 7z"/>
<path d="M5255 6562 c3 -3 -1 -12 -8 -20 -11 -13 -9 -14 11 -1 26 16 28 26 7
26 -8 0 -13 -3 -10 -5z"/>
<path d="M5380 6539 c0 -5 5 -7 10 -4 6 3 10 8 10 11 0 2 -4 4 -10 4 -5 0 -10
-5 -10 -11z"/>
<path d="M9252 6480 c0 -14 2 -19 5 -12 2 6 2 18 0 25 -3 6 -5 1 -5 -13z"/>
<path d="M4696 6462 c-2 -4 -1 -14 5 -22 7 -12 9 -10 9 8 0 23 -5 28 -14 14z"/>
<path d="M4665 6450 c-3 -5 -1 -10 4 -10 6 0 11 5 11 10 0 6 -2 10 -4 10 -3 0
-8 -4 -11 -10z"/>
<path d="M4422 6380 c0 -14 2 -19 5 -12 2 6 2 18 0 25 -3 6 -5 1 -5 -13z"/>
<path d="M5010 6331 c-32 -60 8 -151 65 -151 46 0 62 96 24 144 -25 32 -73 36
-89 7z"/>
<path d="M4050 6300 c-9 -6 -10 -10 -3 -10 6 0 15 5 18 10 8 12 4 12 -15 0z"/>
<path d="M4823 6262 c-7 -8 -13 -35 -13 -63 0 -40 5 -55 25 -74 28 -29 42 -30
70 -9 29 22 27 105 -4 138 -25 26 -56 30 -78 8z"/>
<path d="M4390 6236 c0 -2 7 -9 15 -16 13 -11 14 -10 9 4 -5 14 -24 23 -24 12z"/>
<path d="M4395 6190 c3 -5 8 -10 11 -10 2 0 4 5 4 10 0 6 -5 10 -11 10 -5 0
-7 -4 -4 -10z"/>
<path d="M3859 6150 c0 -8 -1 -47 -2 -86 l-2 -72 40 16 c52 20 61 28 47 45 -7
8 -8 18 -4 22 4 5 1 5 -5 1 -7 -4 -13 -3 -13 3 0 5 -6 16 -13 23 -7 7 -21 24
-30 38 -11 16 -17 19 -18 10z"/>
<path d="M5246 6128 c-2 -7 -9 -44 -15 -82 -19 -126 -104 -213 -206 -212 -58
1 -128 33 -171 76 -33 33 -59 38 -69 13 -8 -22 58 -82 125 -115 58 -28 161
-33 204 -11 104 53 167 152 169 269 2 58 -1 69 -16 72 -9 2 -19 -2 -21 -10z"/>
<path d="M9163 6019 c-1 -12 -1 -20 0 -18 2 2 9 12 16 22 11 14 11 17 -1 17
-7 0 -14 -10 -15 -21z"/>
<path d="M9137 5923 c4 -10 2 -14 -4 -10 -5 3 -10 0 -10 -8 0 -20 13 -19 21 1
9 23 7 34 -4 34 -5 0 -6 -7 -3 -17z"/>
<path d="M3945 5880 c-44 -15 -80 -32 -80 -36 1 -18 26 -101 54 -179 16 -44
41 -123 56 -175 15 -52 38 -126 51 -165 12 -38 33 -104 44 -145 12 -41 24 -77
25 -78 6 -6 175 48 175 56 0 4 -14 52 -31 107 -51 169 -60 198 -75 255 -9 30
-22 74 -30 98 -17 52 -17 55 -1 46 6 -4 4 2 -6 13 -19 22 -48 109 -52 156 -1
16 -7 32 -14 37 -7 4 -12 10 -12 14 5 33 1 32 -104 -4z"/>
<path d="M9097 5829 c7 -7 15 -10 18 -7 3 3 -2 9 -12 12 -14 6 -15 5 -6 -5z"/>
<path d="M9078 5756 c-22 -27 -24 -33 -10 -31 9 2 22 4 27 4 6 1 4 5 -3 9 -9
6 -7 14 8 30 12 12 17 22 13 22 -4 0 -20 -15 -35 -34z"/>
<path d="M4460 5731 c0 -45 28 -167 46 -204 27 -53 76 -121 105 -144 23 -19
28 -20 33 -7 3 8 2 12 -4 9 -6 -3 -10 -2 -10 3 0 5 -16 26 -36 47 -20 21 -40
48 -45 59 -6 12 -17 34 -26 50 -9 17 -18 49 -21 73 -2 24 -9 43 -13 43 -5 0
-9 20 -9 44 0 25 -4 48 -10 51 -6 4 -10 -6 -10 -24z"/>
<path d="M5650 5746 c24 -12 40 -12 40 2 0 4 -15 8 -33 9 l-32 2 25 -13z"/>
<path d="M4560 5635 c0 -5 4 -16 9 -23 6 -11 10 -10 15 4 3 9 4 19 1 22 -3 3
-5 -1 -5 -9 0 -11 -2 -11 -10 1 -5 8 -10 11 -10 5z"/>
<path d="M4521 5615 c-1 -5 6 -30 13 -55 8 -25 15 -36 15 -24 1 12 -6 37 -14
55 -8 19 -14 30 -14 24z"/>
<path d="M4605 5590 c3 -5 8 -10 11 -10 2 0 4 5 4 10 0 6 -5 10 -11 10 -5 0
-7 -4 -4 -10z"/>
<path d="M4580 5551 c0 -6 5 -13 10 -16 6 -3 10 1 10 9 0 9 -4 16 -10 16 -5 0
-10 -4 -10 -9z"/>
<path d="M4625 5430 c3 -5 8 -10 11 -10 2 0 4 5 4 10 0 6 -5 10 -11 10 -5 0
-7 -4 -4 -10z"/>
<path d="M4650 5420 c0 -5 5 -10 10 -10 6 0 10 5 10 10 0 6 -4 10 -10 10 -5 0
-10 -4 -10 -10z"/>
<path d="M6750 5282 c0 -21 146 -136 175 -136 11 -1 21 6 23 16 2 11 -24 37
-77 77 -81 62 -121 76 -121 43z"/>
<path d="M8319 5267 c-54 -41 -51 -147 5 -147 52 0 102 91 77 139 -13 24 -56
28 -82 8z"/>
<path d="M7211 5219 c-34 -21 -65 -39 -70 -39 -4 0 -16 -9 -26 -20 -13 -15
-15 -24 -8 -31 13 -13 73 -3 73 12 0 5 4 9 10 9 23 0 110 63 110 80 0 32 -26
29 -89 -11z"/>
<path d="M8518 5213 c-8 -10 -20 -32 -27 -49 -11 -27 -10 -37 3 -63 34 -64
116 -19 116 63 0 23 -5 47 -12 54 -18 18 -63 15 -80 -5z"/>
<path d="M9915 5159 c-14 -22 7 -59 48 -87 23 -16 104 -60 180 -96 213 -103
302 -168 326 -237 9 -27 8 -31 -13 -39 -29 -11 -89 6 -173 48 -33 17 -98 42
-144 57 -46 14 -113 37 -149 50 -92 33 -167 38 -192 13 -36 -36 -9 -87 88
-169 118 -100 282 -173 450 -200 121 -20 207 18 255 113 24 47 25 146 3 194
-24 49 -103 116 -192 162 -42 22 -90 47 -107 56 -16 8 -73 35 -125 60 -172 80
-240 100 -255 75z"/>
<path d="M7274 5113 c-54 -84 -195 -203 -239 -203 -10 0 -45 15 -78 33 -52 27
-114 81 -182 159 -16 19 -45 14 -45 -7 0 -24 80 -115 141 -160 75 -55 137 -79
184 -72 20 3 65 27 100 52 71 50 175 172 175 204 0 31 -34 26 -56 -6z"/>
<path d="M2815 5116 c-130 -22 -439 -169 -534 -254 -127 -113 -123 -187 10
-198 37 -3 68 4 129 26 45 17 89 30 98 30 9 0 39 -24 68 -54 61 -64 108 -81
199 -72 160 15 303 121 322 240 8 50 -20 119 -67 165 -28 27 -36 42 -29 52 14
23 10 66 -7 73 -23 9 -110 5 -189 -8z m153 -202 c4 -43 -48 -108 -117 -147
-44 -25 -66 -31 -117 -31 -46 -1 -68 3 -80 16 -15 15 -15 18 2 41 11 14 39 37
64 51 25 14 74 44 110 67 50 30 73 39 100 37 31 -3 35 -6 38 -34z"/>
<path d="M5387 5082 c-40 -44 -6 -152 48 -152 41 0 58 27 52 84 -7 74 -61 111
-100 68z"/>
<path d="M8325 5058 c-35 -19 -65 -51 -65 -69 0 -24 37 -31 53 -10 18 27 56
43 83 37 13 -4 40 -20 59 -38 42 -36 66 -28 49 19 -18 52 -128 90 -179 61z"/>
<path d="M5186 5044 c-21 -21 -30 -58 -22 -96 8 -43 23 -58 57 -58 37 0 59 33
59 87 0 68 -55 107 -94 67z"/>
<path d="M8091 5036 c-20 -24 24 -139 77 -197 66 -74 108 -92 201 -87 96 5
139 25 213 100 60 60 79 101 59 121 -10 9 -18 5 -37 -18 -99 -119 -157 -155
-252 -155 -95 0 -152 50 -202 179 -27 68 -40 81 -59 57z"/>
<path d="M3679 4977 c-43 -28 -58 -80 -38 -123 8 -16 44 -49 81 -74 77 -52
118 -89 117 -104 0 -6 -15 -23 -33 -38 l-32 -26 -55 48 c-46 42 -60 49 -96 50
-60 0 -89 -17 -108 -63 -12 -31 -14 -46 -5 -72 17 -51 47 -65 140 -65 l80 0 0
-30 c0 -17 7 -44 15 -59 l14 -29 -57 -7 c-31 -3 -74 -11 -94 -16 -145 -37 -97
-272 50 -244 39 7 69 35 145 134 37 47 53 61 65 55 10 -4 45 -9 80 -12 37 -2
62 -9 62 -16 0 -6 -22 -56 -49 -111 -58 -117 -59 -144 -6 -192 41 -39 83 -43
125 -13 50 36 55 65 26 168 -28 99 -33 165 -13 181 58 48 110 80 120 75 7 -4
39 -28 72 -53 51 -38 67 -45 106 -45 51 0 83 24 101 74 13 39 -5 93 -39 115
-21 14 -40 16 -97 12 -39 -4 -82 -9 -95 -13 -21 -6 -22 -4 -16 15 10 33 -2 84
-30 125 -14 21 -20 38 -14 42 5 3 39 10 75 15 81 11 111 30 124 79 21 79 -23
140 -102 140 -33 0 -59 -24 -152 -134 -48 -56 -50 -58 -90 -54 -23 3 -65 2
-94 -2 -52 -6 -53 -6 -68 25 -8 18 -25 74 -37 126 -20 84 -26 96 -56 116 -43
29 -79 29 -122 0z"/>
<path d="M5534 4929 c-50 -101 -155 -188 -224 -189 -30 0 -110 29 -128 47 -64
63 -98 19 -42 -53 17 -22 40 -52 52 -69 47 -63 145 -152 191 -174 51 -25 87
-23 119 6 43 38 85 204 95 376 6 105 6 107 -15 107 -16 0 -29 -14 -48 -51z m3
-151 c-3 -29 -8 -64 -11 -78 -3 -14 -9 -38 -12 -55 -8 -38 -38 -98 -57 -113
-24 -20 -66 3 -144 81 -40 39 -73 75 -73 78 0 4 17 5 39 2 22 -3 63 2 96 12
46 13 68 27 109 70 28 29 53 53 55 54 2 1 1 -23 -2 -51z"/>
<path d="M3150 4621 c-68 -14 -158 -62 -470 -254 -86 -53 -137 -102 -162 -157
-44 -98 -44 -131 3 -156 26 -13 35 -12 106 11 43 14 116 48 163 75 46 27 86
47 88 46 3 -3 -8 -56 -44 -213 -20 -90 -18 -149 6 -173 16 -16 24 -18 44 -8
20 8 27 22 36 67 6 31 24 92 40 136 16 44 32 99 36 122 3 24 12 51 19 60 13
17 16 17 59 -5 34 -16 65 -22 111 -22 63 0 67 2 111 42 59 54 74 85 74 150 0
45 -5 59 -31 90 -18 23 -45 42 -67 48 -61 17 -63 20 -44 74 16 46 16 48 -2 62
-21 15 -23 15 -76 5z m75 -226 c14 -13 25 -33 25 -45 0 -27 -43 -70 -70 -70
-31 0 -90 27 -91 42 -4 38 18 73 56 89 35 14 55 10 80 -16z"/>
<path d="M8923 4578 c-33 -43 -22 -76 38 -114 25 -15 39 -31 37 -41 -5 -25
-21 -26 -46 -3 -21 20 -67 26 -88 12 -23 -15 -33 -47 -22 -67 16 -29 28 -35
76 -35 40 0 42 -1 42 -30 0 -27 -3 -30 -30 -30 -50 0 -80 -26 -80 -70 0 -43
24 -70 63 -70 18 0 38 14 69 49 41 46 45 49 81 43 l37 -7 -25 -47 c-14 -26
-25 -58 -25 -71 0 -52 70 -76 105 -37 18 20 18 24 3 81 -19 71 -16 90 21 112
26 15 29 15 64 -8 43 -30 78 -32 100 -7 19 21 21 45 7 73 -9 15 -22 19 -64 19
-51 0 -54 2 -58 28 -3 15 -7 33 -9 41 -3 10 8 17 35 21 21 4 42 13 47 21 14
22 10 66 -7 83 -28 29 -59 19 -102 -32 -38 -45 -44 -48 -91 -49 -55 -1 -62 8
-76 89 -3 22 -14 42 -25 48 -26 14 -66 13 -77 -2z"/>
<path d="M9674 4526 c-48 -22 -64 -52 -64 -123 0 -78 16 -110 112 -223 146
-171 332 -340 375 -340 34 0 34 32 1 96 l-21 41 33 56 c46 75 61 81 156 57 78
-20 137 -16 172 12 15 13 16 52 1 80 -25 47 -106 115 -169 142 -67 29 -138 62
-270 124 -170 79 -270 103 -326 78z m120 -211 c32 -20 102 -59 155 -86 53 -28
104 -59 114 -69 18 -17 18 -19 -10 -58 -15 -23 -33 -41 -38 -42 -6 0 -75 65
-155 145 -80 80 -140 145 -135 145 6 0 36 -16 69 -35z"/>
<path d="M9222 4058 c-7 -7 -12 -21 -12 -31 0 -60 140 -255 277 -387 290 -280
361 -296 471 -112 18 29 32 55 32 58 0 3 9 25 21 50 26 58 22 89 -10 89 -17 0
-30 -10 -44 -35 -25 -46 -57 -80 -74 -80 -18 0 -72 40 -138 101 -50 47 -98 87
-170 144 -22 17 -83 67 -137 113 -112 96 -182 124 -216 90z"/>
<path d="M3470 3955 c-117 -41 -437 -215 -502 -274 -53 -46 -24 -76 56 -59
l48 10 45 -43 c73 -72 74 -85 7 -197 -33 -54 -37 -137 -9 -158 28 -20 50 -17
121 16 66 32 87 53 294 294 41 48 85 98 97 112 12 13 38 51 58 85 59 101 43
178 -43 215 -41 17 -121 16 -172 -1z m60 -109 c-14 -12 -83 -79 -154 -146
l-129 -123 -34 37 c-19 20 -33 44 -31 52 2 9 62 46 133 83 72 37 150 80 175
94 56 33 72 34 40 3z"/>
<path d="M9005 3726 c-92 -23 -115 -51 -140 -174 -26 -126 1 -231 100 -381 76
-116 150 -153 300 -154 110 0 166 29 214 113 9 15 17 62 19 121 6 145 -26 239
-107 315 -75 70 -205 148 -266 158 -22 4 -47 9 -55 11 -8 2 -37 -2 -65 -9z
m100 -161 c85 -58 171 -170 236 -308 27 -59 30 -72 20 -94 -11 -24 -14 -25
-69 -19 -68 8 -190 67 -230 110 -15 17 -44 73 -64 124 -30 74 -38 106 -38 157
0 41 4 65 13 69 25 11 84 -6 132 -39z"/>
<path d="M8552 3379 c-93 -46 -142 -141 -142 -275 0 -95 21 -165 75 -250 49
-77 150 -181 200 -207 50 -26 132 -27 200 -2 92 34 125 68 139 145 13 74 -51
230 -95 230 -38 0 -45 -57 -12 -105 16 -24 17 -77 1 -93 -7 -7 -25 -12 -42
-12 -23 0 -45 16 -110 83 -66 66 -90 100 -128 177 -67 136 -76 204 -34 232 20
14 33 8 75 -32 43 -42 59 -48 79 -28 25 25 13 61 -38 110 -42 40 -56 48 -87
48 -21 0 -57 -10 -81 -21z"/>
<path d="M4383 3342 c-10 -10 -25 -29 -33 -42 -8 -13 -29 -40 -46 -59 -42 -48
-63 -91 -90 -181 -12 -41 -41 -124 -64 -185 -61 -159 -64 -259 -9 -329 24 -30
69 -35 116 -11 64 32 260 215 353 331 52 64 114 139 137 166 43 49 58 82 51
115 -6 34 -38 26 -87 -24 -26 -26 -70 -68 -97 -92 -27 -24 -90 -84 -141 -134
-51 -50 -95 -88 -99 -85 -8 9 22 136 62 258 54 162 57 176 40 213 -8 18 -17
42 -21 55 -8 28 -48 30 -72 4z"/>
<path d="M3463 3225 c-17 -7 -36 -22 -42 -34 -41 -76 49 -161 133 -126 38 16
46 31 46 86 0 36 -24 77 -47 80 -44 7 -63 5 -90 -6z"/>
<path d="M8005 3069 c-43 -42 -55 -60 -53 -79 3 -23 7 -25 44 -23 l42 2 21
-57 c11 -31 30 -86 41 -122 37 -116 148 -283 235 -354 33 -28 59 -40 90 -44
41 -4 44 -3 51 23 8 33 -1 126 -15 151 -6 11 -29 59 -52 109 -60 132 -183 346
-226 394 -30 33 -47 44 -80 48 -39 5 -44 3 -98 -48z"/>
<path d="M7797 3043 c-10 -9 -8 -100 3 -148 7 -33 57 -214 77 -277 10 -32 -10
-19 -98 60 -109 98 -213 183 -245 200 -62 33 -98 -8 -88 -98 11 -103 113 -471
163 -592 51 -122 90 -158 111 -103 15 40 -15 168 -82 348 -22 60 -38 111 -35
113 3 3 26 -21 52 -53 26 -32 55 -62 64 -67 9 -5 18 -12 21 -15 12 -14 108
-90 152 -119 97 -66 207 -94 222 -56 24 63 -18 201 -138 455 -19 41 -42 102
-51 135 -34 130 -66 209 -91 218 -20 8 -29 8 -37 -1z"/>
<path d="M4931 2988 c-19 -5 -49 -21 -67 -35 -77 -58 -322 -410 -354 -508 -23
-69 24 -82 85 -23 34 33 46 32 133 -7 l52 -24 0 -98 c0 -111 18 -161 64 -177
23 -9 31 -5 65 28 49 48 97 136 106 196 4 25 11 61 16 80 65 256 96 429 84
473 -28 99 -79 126 -184 95z m-26 -209 c-15 -41 -38 -112 -52 -159 -13 -46
-31 -97 -39 -112 -15 -28 -15 -28 -52 -12 -20 9 -43 18 -49 21 -20 8 -16 20
38 96 28 40 78 114 112 166 34 51 63 89 65 83 1 -5 -9 -43 -23 -83z"/>
<path d="M5371 2869 c-28 -26 -61 -99 -94 -209 -14 -47 -35 -115 -46 -153 -44
-146 -73 -285 -74 -357 -2 -70 0 -75 19 -78 15 -2 29 6 42 25 22 31 71 190 97
313 9 41 18 86 21 100 8 36 20 9 28 -64 4 -32 17 -86 30 -120 13 -34 34 -90
47 -126 28 -80 79 -162 118 -189 37 -26 43 -26 68 2 46 49 74 152 103 386 11
90 23 168 26 173 11 18 44 149 50 200 5 43 3 56 -11 68 -36 30 -75 -30 -119
-180 -14 -47 -36 -121 -49 -165 l-24 -80 -17 60 c-80 272 -125 388 -156 405
-26 14 -33 13 -59 -11z"/>
<path d="M6017 2789 c-23 -13 -93 -163 -112 -238 -34 -139 -44 -368 -21 -496
31 -175 122 -198 320 -81 110 66 185 178 227 339 23 88 24 144 4 222 -31 121
-69 165 -160 185 -50 11 -120 5 -131 -11 -11 -18 -25 -8 -39 25 -8 19 -25 42
-37 50 -26 19 -27 19 -51 5z m223 -209 c78 -55 77 -212 -2 -359 -22 -42 -91
-111 -111 -111 -9 0 -2 378 9 453 5 35 8 37 41 37 19 0 47 -9 63 -20z"/>
<path d="M6755 2731 c-60 -15 -101 -54 -133 -126 -13 -30 -29 -96 -58 -250
-19 -104 -38 -337 -30 -370 13 -50 60 -22 93 56 12 27 48 39 121 39 52 0 68
-15 93 -85 37 -105 118 -164 163 -120 36 37 49 204 22 287 -8 24 -17 63 -21
88 -4 25 -11 59 -15 75 -5 17 -19 73 -30 125 -38 174 -76 251 -136 276 -18 8
-35 14 -36 13 -2 -1 -17 -4 -33 -8z m-10 -268 c8 -59 19 -148 26 -196 6 -48 9
-91 5 -94 -4 -4 -30 -7 -59 -8 l-52 0 1 35 c1 19 9 80 18 135 9 55 19 118 22
140 10 82 15 107 21 102 3 -3 11 -54 18 -114z"/>
</g>
</svg>
